<svg xmlns="http://www.w3.org/2000/svg" fill="none" viewBox="0.56 0.48 104.43 106.27">
<path d="M62.8693 103.643C72.3366 99.9049 79.2218 91.0495 80.1972 80.469H95.5169C95.5743 80.584 95.6316 80.699 95.7464 80.814C88.4595 92.372 76.6972 100.825 62.8693 103.643ZM9.62344 80.7565C9.68081 80.699 9.68081 80.584 9.73819 80.469H25.1726C26.148 90.992 33.0333 99.8474 42.5005 103.643C28.6726 100.825 16.8529 92.372 9.56606 80.7565H9.62344ZM4.4595 37.6871C4.22999 39.0671 4.11524 40.5047 4.11524 41.9423C4.11524 51.5452 8.99229 59.9981 16.4513 65.0008L8.7054 78.5714C8.59065 78.5139 8.41852 78.5139 8.30376 78.5139C4.22999 71.1536 1.87753 62.7582 1.87753 53.7878C1.87753 48.21 2.79557 42.8048 4.4595 37.8021V37.6871ZM51.3366 2.78301C51.4513 2.95552 51.5661 3.12803 51.6808 3.24303L43.8202 17.0437C40.148 15.2611 36.0743 14.2835 31.771 14.2835C25.0005 14.2835 18.8038 16.7561 13.9841 20.8388C23.0497 10.1433 36.4185 3.24303 51.3939 2.84052L51.3366 2.78301ZM90.9841 20.2063C86.2218 16.3536 80.1972 13.996 73.5988 13.996C69.2382 13.996 65.1644 15.0311 61.4923 16.8136L53.7464 3.24303C53.8611 3.12803 54.0333 2.95552 54.0906 2.78301C68.7792 3.18553 81.9185 9.85583 90.9841 20.2063ZM78.8202 68.8535C82.0333 68.2209 85.0169 67.0709 87.7136 65.4608L95.5169 79.1464H80.312C80.312 78.7439 80.3693 78.3414 80.3693 77.9389C80.3693 74.7762 79.8529 71.7286 78.8202 68.8535ZM67.9185 79.1464L73.4841 69.371H73.5415C75.148 69.371 76.7546 69.1985 78.3038 68.9685C79.2792 71.7861 79.8529 74.7762 79.8529 77.9389C79.8529 78.3414 79.8529 78.7439 79.7956 79.1464H67.9185ZM54.0906 104.62C53.9759 104.448 53.8611 104.275 53.689 104.103L67.1726 80.469H79.7382C78.648 91.912 70.4431 101.342 59.5988 104.218C57.8202 104.448 55.9841 104.62 54.148 104.678L54.0906 104.62ZM38.312 80.469L51.7956 104.103C51.6234 104.218 51.5087 104.39 51.3939 104.62C49.5579 104.563 47.7218 104.448 45.9431 104.16C35.0988 101.342 26.8366 91.912 25.8038 80.4115H38.3693L38.312 80.469ZM25.6316 77.8814C25.6316 74.8337 26.148 71.9011 27.0661 69.1985C28.6152 69.486 30.1644 69.601 31.771 69.601C31.8857 69.601 32.0005 69.601 32.1152 69.601L37.5661 79.1464H25.689C25.689 78.7439 25.6316 78.3414 25.6316 77.9389V77.8814ZM26.5497 69.0835C25.6316 71.8436 25.1152 74.7762 25.1152 77.8814C25.1152 78.2839 25.1152 78.6864 25.1726 79.0889H9.9677L17.6562 65.6333C20.3529 67.2434 23.3939 68.451 26.607 69.0835H26.5497ZM23.7382 54.8803L28.9021 63.9082C28.0415 65.4033 27.2956 66.9559 26.7218 68.566C23.5661 67.9909 20.5825 66.7834 17.8857 65.1733L23.7956 54.8228L23.7382 54.8803ZM52.1972 24.1165C51.3939 25.094 50.648 26.1866 49.9595 27.2791H39.5169L44.7956 18.0787C47.607 19.6313 50.1316 21.7014 52.2546 24.1165H52.1972ZM65.9103 27.2791H55.1808C54.4923 26.1866 53.689 25.094 52.8857 24.1165C55.0087 21.5864 57.5907 19.4588 60.5169 17.8487L65.9103 27.3366V27.2791ZM76.5251 63.9082L81.689 54.8803L87.4267 64.9433C84.73 66.5534 81.8038 67.7034 78.648 68.2784C78.0743 66.7259 77.3857 65.2883 76.5825 63.8507L76.5251 63.9082ZM76.2382 64.4258C76.9841 65.6908 77.6152 67.0134 78.0743 68.3934C76.6398 68.6235 75.2054 68.796 73.7136 68.796L76.1808 64.4258H76.2382ZM61.0907 65.7483L67.2874 54.9953C70.5579 57.0654 73.312 59.8831 75.4349 63.1032L72.2218 68.7385C68.2054 68.566 64.4759 67.4734 61.0907 65.7483ZM53.4021 79.0889L60.8611 66.2084C64.2464 67.9334 67.9759 69.026 71.9349 69.256L66.312 79.0889H53.4021ZM52.9431 80.4115H65.5661L52.9431 102.607V80.4115ZM52.4267 80.4115V102.607L39.8038 80.4115H52.4267ZM44.6234 66.3234L51.9677 79.0889H39.0579L33.607 69.486C37.5661 69.1985 41.2956 68.1059 44.6234 66.3234ZM30.7956 42.4023H30.8529L37.8529 54.4778C34.5825 56.5479 31.8284 59.308 29.7054 62.5282L24.5415 53.4428L30.8529 42.3448L30.7956 42.4023ZM29.7054 41.6548L23.7382 52.1202L10.5415 28.9467L29.7054 41.6548ZM29.9349 41.1947L10.8284 28.5442H37.107L29.8775 41.1947H29.9349ZM45.8857 41.5972V41.6548H31.1972L38.6562 28.5442H49.0988C47.0333 32.4543 45.8284 36.882 45.8284 41.5397L45.8857 41.5972ZM74.1152 41.6548H59.312C59.2546 36.9395 58.0497 32.4543 55.9267 28.5442H66.6562L74.1152 41.6548ZM75.3775 41.1372L68.2054 28.6017H94.7136L75.3775 41.1372ZM75.607 41.5972L94.7136 29.1767L81.6316 52.1777L75.607 41.5972ZM74.5169 42.4023L80.8857 53.5003L75.7218 62.5857C73.5988 59.3655 70.7874 56.6054 67.5743 54.5353L74.5743 42.4023H74.5169ZM59.0251 50.9127C59.0251 50.8552 59.0251 50.8552 59.0251 50.7977C59.0251 50.2226 58.6808 49.7051 58.2218 49.4751C58.7956 47.405 59.1398 45.2774 59.2546 43.0348H72.6234L66.3693 53.8453C64.0743 52.5227 61.6644 51.5452 59.0251 50.9127ZM53.7464 60.1706C54.0333 59.8831 54.148 59.5381 54.148 59.1355C54.148 58.7905 54.0333 58.503 53.8611 58.273C55.2382 56.4329 56.3284 54.4203 57.189 52.2927C57.2464 52.2927 57.3611 52.2927 57.4185 52.2927C58.0497 52.2927 58.5661 51.8902 58.7956 51.3727C61.3775 52.0052 63.7874 52.9828 66.0251 54.2478L59.8284 65.0583C57.5333 63.7357 55.4677 62.0682 53.689 60.1706H53.7464ZM46.2874 51.4302C46.5169 51.9477 47.0333 52.2927 47.6644 52.2927C47.7792 52.2927 47.8939 52.2927 48.0087 52.2352C48.9267 54.3628 50.0743 56.3754 51.3939 58.158C51.2218 58.388 51.107 58.733 51.107 59.078C51.107 59.5381 51.2792 59.9406 51.6234 60.2281C49.8447 62.1832 47.7792 63.8507 45.4841 65.2308L39.1726 54.2478C41.3529 52.9828 43.7628 52.0052 46.2874 51.4302ZM47.0333 49.4176C46.5169 49.6476 46.1726 50.1651 46.1726 50.7977C46.1726 50.8552 46.1726 50.9127 46.1726 50.9702C43.5906 51.6027 41.1808 52.5802 38.9431 53.8453L32.689 43.0348H45.9431C46.0579 45.2199 46.4595 47.405 47.0333 49.4176ZM57.5333 49.2451C56.8447 49.2451 56.2136 49.7051 56.0415 50.3951C54.9513 50.2801 53.8038 50.1651 52.6562 50.1651C51.4513 50.1651 50.3038 50.2226 49.1562 50.3951C48.9841 49.7626 48.4103 49.2451 47.6644 49.2451C47.607 49.2451 47.5497 49.2451 47.4923 49.2451C46.9185 47.2325 46.5169 45.1624 46.4021 42.9773H58.7382C58.6234 45.1624 58.2792 47.2325 57.7628 49.2451C57.7054 49.2451 57.5907 49.2451 57.5333 49.2451ZM53.5743 57.8705C53.3447 57.698 53.0005 57.583 52.6562 57.583C52.312 57.583 52.0251 57.698 51.7956 57.8705C50.4759 56.0879 49.3857 54.1328 48.4677 52.0627C48.8693 51.8327 49.1562 51.3727 49.1562 50.9127C50.3038 50.7402 51.4513 50.6827 52.5988 50.6827C53.7464 50.6827 54.8366 50.7402 55.9267 50.9127C55.9841 51.4302 56.271 51.8902 56.73 52.1777C55.8693 54.2478 54.7792 56.1454 53.5169 57.928L53.5743 57.8705ZM52.6562 77.6514L45.771 65.6908C48.1234 64.3108 50.2464 62.5857 52.0825 60.5731C52.2546 60.6306 52.4841 60.6881 52.7136 60.6881C52.9431 60.6881 53.1726 60.6306 53.4021 60.5156C55.2382 62.4707 57.3611 64.1958 59.7136 65.5183L52.7136 77.6514H52.6562ZM50.4759 27.2216C51.107 26.2441 51.7382 25.324 52.4841 24.4615C53.23 25.324 53.9185 26.2441 54.4923 27.2216H50.4759ZM55.2956 28.5442C57.4759 32.3968 58.7382 36.882 58.7382 41.6548H46.3447V41.5972C46.3447 36.882 47.5497 32.4543 49.6726 28.6017H55.2956V28.5442ZM31.7136 69.026H31.6562C30.107 69.026 28.6152 68.911 27.1234 68.6235C27.6398 67.1284 28.3284 65.7483 29.0743 64.3683L31.7136 69.026ZM29.8775 63.1032C32.0005 59.8256 34.7546 57.0654 38.0251 54.9953L44.3366 65.9208C41.0087 67.7034 37.2218 68.796 33.2628 69.026L29.9349 63.1607L29.8775 63.1032ZM100.566 41.5972C100.566 51.0277 95.7464 59.308 88.4595 64.1958L82.3775 53.5003L96.4349 28.8317C96.607 28.9467 96.8366 29.0042 97.0661 29.0042C97.0661 29.0042 97.0661 29.0042 97.1234 29.0042C97.9841 30.5568 98.73 32.1093 99.4185 33.7194C100.164 36.192 100.566 38.8371 100.566 41.5972ZM93.2218 23.0239C94.0825 24.174 94.9431 25.3815 95.689 26.6466C95.5743 26.8191 95.5169 26.9916 95.5169 27.2216H67.3447L61.607 17.1587C65.1644 15.4336 69.1808 14.3985 73.4267 14.3985C81.23 14.3985 88.23 17.7337 93.2218 23.0239ZM60.1726 17.3312C57.2464 18.9412 54.607 21.1263 52.4267 23.6564C50.3038 21.2413 47.7792 19.1712 44.9103 17.5612L52.5988 4.04807L60.1726 17.2737V17.3312ZM31.6562 14.686C35.9021 14.686 39.9185 15.6636 43.4759 17.3887L37.8529 27.2216H9.62344C9.62344 27.0491 9.56606 26.8766 9.4513 26.7041C10.0825 25.669 10.771 24.6915 11.4595 23.7139C16.4513 18.1937 23.6234 14.7435 31.5988 14.7435L31.6562 14.686ZM5.7218 34.0644C6.4677 32.2818 7.27098 30.6143 8.18901 28.9467C8.41852 28.9467 8.64803 28.8892 8.82016 28.7742L22.8775 53.5003L16.6234 64.4833C9.33655 59.5956 4.57425 51.3152 4.57425 41.8848C4.57425 39.1821 4.97589 36.537 5.7218 34.0644ZM97.1808 78.2264C97.0661 78.2264 96.9513 78.1689 96.8366 78.1689C96.7218 78.1689 96.607 78.1689 96.4923 78.2264L88.7464 64.6558C96.2054 59.7106 101.082 51.2002 101.082 41.5972C101.082 40.1022 100.968 38.6071 100.738 37.1696C102.517 42.3448 103.492 47.865 103.492 53.6728C103.492 62.5857 101.197 70.9811 97.1808 78.2839V78.2264ZM104.869 53.6153C104.869 44.5874 102.632 35.962 98.3857 28.3142C98.5579 28.0841 98.6726 27.7391 98.6726 27.4516C98.6726 26.5891 97.9841 25.899 97.1234 25.899C97.0661 25.899 97.0087 25.899 96.9513 25.899C94.8857 22.5639 92.4185 19.4588 89.607 16.6411C80.0825 7.09571 67.5169 1.69046 54.0906 1.34545C53.8611 0.827926 53.3447 0.48291 52.7136 0.48291C52.0825 0.48291 51.5661 0.827926 51.3366 1.34545C37.9103 1.69046 25.3447 7.09571 15.8202 16.6411C13.0087 19.4588 10.5415 22.5639 8.47589 25.8415C8.41852 25.8415 8.30376 25.8415 8.24639 25.8415C7.38573 25.8415 6.69721 26.5316 6.69721 27.3941C6.69721 27.7391 6.81196 28.0841 7.04147 28.3142C2.79557 35.962 0.557861 44.5874 0.557861 53.6153C0.557861 62.6432 2.85294 71.3261 7.09885 78.9739C6.92671 79.2039 6.81196 79.5489 6.81196 79.894C6.81196 80.7565 7.50048 81.4465 8.36114 81.4465C8.41852 81.4465 8.47589 81.4465 8.59065 81.4465C10.6562 84.7242 13.1234 87.8293 15.8775 90.5894C25.4021 100.135 37.9677 105.54 51.3939 105.885C51.6234 106.403 52.1398 106.748 52.771 106.748C53.4021 106.748 53.9185 106.403 54.148 105.885C67.5743 105.54 80.1398 100.135 89.6644 90.5894C92.5333 87.7143 95.0005 84.6092 97.0661 81.2165C97.8693 81.159 98.5005 80.469 98.5005 79.6639C98.5005 79.4339 98.4431 79.2039 98.3857 79.0314C102.689 71.3261 104.984 62.6432 104.984 53.5578L104.869 53.6153Z" fill="#E6E6E6"/>
</svg>