<?xml version="1.0" encoding="utf-8"?><svg viewBox="0 0 21.5 62.72" xmlns="http://www.w3.org/2000/svg" xmlns:xlink="http://www.w3.org/1999/xlink"><style>:root>svg{display:none}:root>svg:target{display:block}</style><svg viewBox="0.64 0.64 14.73 62.72" id="arrow-icon" xmlns="http://www.w3.org/2000/svg"><path d="M7.293 63.068a1 1 0 001.414 0l6.364-6.364a1 1 0 00-1.414-1.415L8 60.946 2.343 55.29A1 1 0 00.93 56.703l6.364 6.364zM7 .64v61.72h2V.64H7z"/></svg><svg fill="none" viewBox="3.81 2.56 17.5 20.5" id="map-icon" xmlns="http://www.w3.org/2000/svg"><path d="M19.814 11.225c0 2.447-1.462 5.045-3.22 7.088-.867 1.009-1.777 1.847-2.554 2.426a7.13 7.13 0 01-1.01.646 2.38 2.38 0 01-.34.144c-.091.029-.13.03-.127.03v1.5c.382 0 .787-.156 1.14-.334.379-.19.798-.459 1.234-.784.873-.65 1.862-1.566 2.795-2.65 1.843-2.142 3.582-5.084 3.582-8.066h-1.5zm-7.25 10.334c.003 0-.036-.001-.127-.03a2.385 2.385 0 01-.34-.144 7.125 7.125 0 01-1.01-.646c-.777-.58-1.687-1.417-2.555-2.426-1.757-2.043-3.219-4.641-3.219-7.088h-1.5c0 2.982 1.74 5.925 3.582 8.066.932 1.084 1.922 2 2.795 2.65.436.325.855.593 1.233.784.354.178.76.334 1.14.334v-1.5zm-7.25-10.334c0-3.95 3.238-7.166 7.25-7.166v-1.5c-4.826 0-8.75 3.872-8.75 8.666h1.5zm7.25-7.166c4.011 0 7.25 3.216 7.25 7.166h1.5c0-4.794-3.925-8.666-8.75-8.666v1.5z" fill="#9C8364"/><circle r="3" transform="matrix(-1 0 0 1 12.563 10.809)" stroke="#9C8364" stroke-width="1.5"/></svg><svg fill="none" viewBox="2.81 3.06 19.5 19.5" id="phone-icon" xmlns="http://www.w3.org/2000/svg"><path d="M4.345 5.747l-.53-.53.53.53zM5.632 4.46l.53.53-.53-.53zm3.27.052l-.531.53.53-.53zm1.992 1.993l.53-.53-.53.53zm.053 3.27l.53.53-.53-.53zm4.65 4.65l.53.53-.53-.53zm3.27.053l.53-.53-.53.53zm1.993 1.993l-.53.53.53-.53zm-7.332-1.688l.477-.579-.477.579zm1.793-.081l-.53-.53.53.53zm-4.65-4.65l-.53-.531.53.53zm-.081 1.793l.578-.478-.578.477zm-2.674 5.61c2.17 2.17 4.565 3.753 6.711 4.54 2.082.764 4.221.87 5.529-.438l-1.06-1.06c-.647.646-1.988.811-3.952.09-1.9-.697-4.116-2.141-6.167-4.192l-1.06 1.06zM3.815 5.217c-1.308 1.308-1.202 3.447-.438 5.529.787 2.146 2.37 4.542 4.54 6.71l1.06-1.06c-2.05-2.05-3.495-4.267-4.192-6.167-.72-1.964-.556-3.305.09-3.951l-1.06-1.06zm5.617-1.234c-1.194-1.194-3.133-1.25-4.33-.053l1.06 1.061c.58-.58 1.568-.588 2.209.053l1.06-1.061zm1.993 1.993L9.432 3.982 8.37 5.042l1.993 1.994 1.06-1.061zm.052 4.33c1.197-1.197 1.142-3.136-.052-4.33l-1.06 1.06c.64.641.631 1.63.051 2.21l1.061 1.06zm-.276.276l.276-.276-1.06-1.06-.277.276 1.06 1.06zm1.315 2.275a21.03 21.03 0 01-1.348-1.489l-1.157.955c.443.536.922 1.073 1.444 1.595l1.06-1.06zm1.489 1.348a21.009 21.009 0 01-1.49-1.348l-1.06 1.061a22.552 22.552 0 001.595 1.444l.955-1.157zm1.062-.31l-.276.277 1.06 1.06.277-.275-1.06-1.061zm4.33.053c-1.194-1.194-3.133-1.25-4.33-.052l1.06 1.06c.58-.579 1.569-.588 2.21.053l1.06-1.06zm1.993 1.993l-1.993-1.993-1.06 1.061 1.992 1.993 1.061-1.06zm.053 4.33c1.197-1.197 1.141-3.136-.053-4.33l-1.06 1.061c.64.64.632 1.63.052 2.209l1.06 1.06zm-8.393-4.909c.84.693 2.05.622 2.801-.13l-1.06-1.06a.583.583 0 01-.786.033l-.955 1.157zm-2.91-5.84a2.083 2.083 0 00-.129 2.8l1.157-.954a.583.583 0 01.033-.786l-1.06-1.06zM5.102 3.929L3.815 5.216l1.06 1.06L6.163 4.99l-1.06-1.06zm15.054 17.628l1.287-1.287-1.061-1.06-1.287 1.287 1.06 1.06z" fill="#9C8364"/></svg><svg fill="none" viewBox="4.68 9 17.98 10.62" id="small-arrow-icon" xmlns="http://www.w3.org/2000/svg"><path d="M9.528 9.839l-3.681 3.68a1.118 1.118 0 000 1.581l3.68 3.68m-3.353-4.47h15.65" stroke="#6D5C42" stroke-width="1.677" stroke-linecap="round"/></svg><svg fill="none" viewBox="1.81 2.06 21.5 21.5" id="time-icon" xmlns="http://www.w3.org/2000/svg"><circle cx="12.563" cy="12.809" r="10" stroke="#9C8364" stroke-width="1.5"/><path d="M12.563 8.809v3.732a.5.5 0 00.223.416l2.777 1.852" stroke="#9C8364" stroke-width="1.5" stroke-linecap="round"/></svg></svg>