<?xml version="1.0" encoding="utf-8"?><svg viewBox="0 0 52.07 62.72" xmlns="http://www.w3.org/2000/svg" xmlns:xlink="http://www.w3.org/1999/xlink"><style>:root>svg{display:none}:root>svg:target{display:block}</style><svg viewBox="0.64 0.64 14.73 62.72" id="arrow-icon" xmlns="http://www.w3.org/2000/svg"><path d="M7.293 63.068a1 1 0 001.414 0l6.364-6.364a1 1 0 00-1.414-1.415L8 60.946 2.343 55.29A1 1 0 00.93 56.703l6.364 6.364zM7 .64v61.72h2V.64H7z"/></svg><svg fill="none" viewBox="0.7 0.89 52.07 21.57" id="madeby-icon" xmlns="http://www.w3.org/2000/svg"><path fill-rule="evenodd" clip-rule="evenodd" d="M31.581 9.188l.077 1.206c.01.067.01.115.01.21 0 .096.018.106.018.202 0 .268.048.546.048.823l.029.393c.019.143.019.277.019.421 0 .115.029.278.038.393l.03.593c0 .096.018.115.018.201l.048.824c0 .095.02.105.02.2 0 .24.028.355.028.613l.038.412h-1.704l.316-1.628c.048-.277.115-.536.163-.813.019-.134.048-.259.076-.403.029-.143.058-.268.077-.411l.316-1.628c.057-.268.096-.546.163-.814l.115-.603c.01-.038.01-.048.019-.105l.028-.106.01.02zm9.23 2.853h-1.657c-.067 0-.038-.058-.038-.134l.192-3.035c0-.096.019-.106.019-.192l.057-1.015c.01-.067.01-.124.01-.2 0-.173.048-.604.048-.805 0-.096.019-.115.019-.201l.019-.412c.01-.115.029-.287.029-.412h1.77c.49 0 .346.364.346.747l-.22 3.428c0 .077.009.144 0 .22-.049.431-.049.986-.096 1.408-.03.258.076.593-.498.593v.01zm-11.585 8.923c.038-.182.076-.383.115-.565.038-.2.076-.383.114-.584.039-.191.077-.383.115-.584.039-.191.077-.392.125-.574h2.527c0 .163.048.421.048.584.01.287.058.584.067.871.01.192.048.393.048.594 0 .086-.01.258.067.258h6.042c.076 0 .048-.134.067-.325.019-.24.019-.498.048-.738.01-.057 0-.124 0-.181l.067-.93c.019-.171.01-.392.038-.564.029-.182.02-.373.038-.565.01-.057 0-.115.01-.182l.096-1.484c0-.077 0-.124.01-.201a6.69 6.69 0 00.047-.756h.44c.068 0 .058.086.077.143l.488 2.05.182.755a58.5 58.5 0 01.537 2.241l.134.565c.019.067.01.163.076.163h3.801c0-.087-.067-.278-.096-.374l-.392-1.465c-.153-.622-.345-1.235-.498-1.857-.153-.613-.345-1.235-.488-1.848-.029-.124-.077-.249-.105-.373.469 0 .823-.125 1.081-.335a1.82 1.82 0 00.69-1.456l.21-3.35c.02-.106.01-.24.03-.336l.037-.68c0-.076.01-.095.02-.153.01-.067 0-.115.01-.182.028-.163.018-.335.028-.498l.048-.67c.01-.163.01-.354.029-.517l.057-1.015h1.14c0 .316-.049.622-.049.938l-.067.939c-.019.162-.01.316-.019.478l-.067.939c0 .172-.01.335-.029.478l-.23 3.773c-.019.134-.019.335-.028.469 0 .086-.02.115-.02.22l-.306 4.979c-.01.143-.038.316-.038.46l-.057.947c-.02.144-.029.316-.029.479h3.753c.077 0 .048-.105.048-.192 0-.153.038-.306.038-.478l.077-1.187c.02-.125.029-.326.029-.47 0-.086.019-.124.019-.239 0-.115.019-.144.019-.24 0-.124.01-.344.029-.468.028-.163.01-.326.028-.489.01-.143.03-.306.03-.46l.038-.478c0-.105.01-.144.019-.22l.038-.738c.019-.277.057-.66.067-.938l.048-.957c.01-.144.038-.307.038-.46 0-.163.029-.325.038-.478.01-.336.039-.623.048-.958l.335-5.199c.01-.086.01-.153.01-.249 0-.086.02-.124.02-.24h2.489c-.068-.277-.116-.564-.183-.86l-.258-1.294-.086-.44c-.029-.134-.058-.287-.086-.421-.03-.153-.077-.297-.077-.45h-6.894c-.01.067-.028.115-.047.172-.058.163-.135.345-.173.508h-.038c-.02-.067-.086-.115-.134-.163a1.443 1.443 0 00-.354-.24c-.316-.191-.814-.277-1.236-.277h-7.219c0 .258-.038.46-.038.699 0 .076-.01.105-.01.153-.01.067 0 .124-.01.182-.009.096-.018.249-.028.345-.01.057 0 .114 0 .172l-.057.88c-.03.211-.039.786-.058 1.054l-.029.517c0 .182-.038.335-.038.507l-.105 1.57c-.01.288-.058.585-.048.872 0 .287-.038.584-.048.871l-.134 2.068c0 .412-.067.833-.067 1.245h-.02c0-.345-.124-.996-.152-1.379l-.029-.23c-.01-.095-.01-.143-.02-.23l-.325-2.747c-.086-.603-.124-1.235-.22-1.829l-.057-.46-.489-4.136c-.019-.172-.038-.115-.402-.115h-3.6l-.65 2.69c-.508 2.021-.977 4.05-1.485 6.08-.057.22-.115.45-.163.67l-1.063 4.376-.086.345-.986 4.05c-.01.029-.086.335-.086.335.01.048 0 .029.057.029h3.687v.038z" fill="#fff"/><path fill-rule="evenodd" clip-rule="evenodd" d="M1.316 18.982c.01-.086.029-.172.048-.249l.057-.316c.01-.048.01-.105.03-.162.009-.048.018-.086.028-.125.01-.086.029-.172.038-.268.01-.086.038-.172.048-.24 0-.057.086-.545.105-.583 0-.077.115-.795.134-.833.01-.134.058-.287.067-.421.01-.154.067-.355.087-.508.01-.134.048-.306.067-.44.01-.077.019-.134.038-.22.01-.058.029-.116.029-.192.028-.096.038-.278.067-.354.01-.144.048-.288.067-.431.01-.058.019-.096.028-.163.01-.048 0-.086.03-.105 0-.125.047-.25.047-.354.029-.163.067-.336.086-.498l.058-.335c.01-.039.019-.125.028-.163.01-.058.02-.077.02-.134a2.45 2.45 0 01.047-.259c.01-.067.039-.172.039-.23.019-.095.038-.2.048-.287.01-.191.086-.383.086-.584.019-.048.048-.21.048-.258a3.84 3.84 0 00.048-.288l.086-.526c.01-.039.01-.048.01-.086 0-.02 0-.02.009-.039l.01-.019c0-.143.047-.316.067-.45 0-.057.047-.335.067-.364 0-.124.038-.172.038-.287.01-.048.048-.22.048-.278 0-.067.019-.095.028-.162l.077-.402c0-.125.02-.182.038-.297.01-.039.039-.22.048-.268.01-.087.029-.144.039-.24.01-.067.086-.603.114-.632 0-.086.01-.105.03-.182.009-.067.047-.402.076-.43 0-.106.019-.182.038-.288.02-.095.02-.162.048-.239l.105-.603c0-.077.087-.594.106-.623 0-.086.076-.545.105-.603 0-.067.048-.364.067-.402 0-.086.029-.24.048-.325 0-.058.124-.766.134-.805 0-.134.048-.297.067-.43 0-.077.01-.058.019-.116h20.825l-.096.632c-.02.096.01.039-.038.077l.01.048c-.03.143-.106.775-.154.842.01.087-.077.661-.115.719.01.095-.077.574-.105.689l-.058.325-.182.996c.01.067-.076.594-.105.642.01.143-.048.364-.077.517l-.086.507c-.01.02-.01.02-.01.038l-.009.03c.01.076-.01.258-.057.315.01.105-.039.306-.058.412-.019.115-.095.67-.134.718.01.086-.057.546-.105.603.01.048-.038.44-.086.498.019.124-.096.594-.115.766-.029.105-.039.22-.058.325l-.067.335c.01.048-.048.537-.105.613.02.077-.01.259-.058.316.01.086-.019.182-.028.278l-.105.526c.01.067-.02.288-.058.336.01.095-.038.43-.086.497.01.096-.02.201-.038.297-.01.067-.03.24-.067.287.01.058 0 .106-.01.163 0 .029-.01.058-.02.086-.009.058 0 .03-.028.067.01.068 0 .106-.01.163 0 .02-.009.058-.009.077-.01.057 0 .029-.029.067l-.057.45c-.038.115.038-.096-.01.029 0 0-.01.019-.01.01 0 0 0 .009-.009.009.01.057 0 .105-.01.162l-.038.144c.02.077-.048.479-.086.536.01.096-.057.546-.105.604.01.095-.039.45-.086.507.01.077-.01.249-.048.306.01.087-.02.192-.039.288l-.067.42c-.01.068-.048.336-.076.393.019.096-.02.22-.039.326-.019.096-.019.23-.067.297.01.086-.019.182-.028.268-.01.076-.02.191-.058.24.02.114-.048.354-.067.478-.019.124-.019.354-.086.44.01.096-.038.45-.086.508.01.086-.067.565-.105.613.01.114-.058.43-.077.564-.02.144.01.163-.134.173h-18v-.01c-.575 0-1.15 0-1.714.01H.703c.01-.077.03-.163.048-.25l.077-.497c.01-.038.029-.21.048-.23 0-.057.067-.498.086-.526 0-.067.02-.163.029-.22.21-1.226.048-.163.297-1.782l.028.03zm4.366 1.666h3.236c1.006-4.95 2.346-12.84 3.237-18.019H8.947c.038 1.14-3.112 17.167-3.255 18.029l-.01-.01zm8.1-5.237c-.029.067-.038.192-.048.278-.01.086-.048.191-.048.287 0 .057-.028.134-.038.191-.01.067-.029.154-.038.23a2.09 2.09 0 00-.067.393c-.029.038-.106.526-.106.613l-.105.536c-.02.143-.067.258-.048.44.029.287.278.47.584.421.23-.038.21-.057.364-.143.058-.096.287-.288.268-.44.038-.058.105-.498.115-.566.029-.124.105-.507.096-.603l.01-.028c0-.01.076-.23.057-.364l.028-.096c.01-.029.01-.067.02-.105.01-.067.038-.144.019-.211.01-.02.01 0 .019-.038l.019-.087c.01-.067.01-.067.01-.124.047-.057.067-.316.086-.412.019-.124.086-.392.076-.498l.067-.287c.02-.105.048-.21.039-.306.028-.038.028-.096.019-.153.086-.134-.048-.651-.096-.795-.048-.134-.297-.536-.373-.575-.02-.047-.23-.335-.278-.363-.02-.058 0-.01-.038-.058l-.268-.335-.067-.105c-.087-.106-.489-.632-.527-.642-.02-.067-.182-.258-.24-.325-.047-.058-.21-.287-.248-.307-.02-.038-.25-.363-.288-.383-.047-.115-.134-.22-.2-.335a1.594 1.594 0 01-.096-.182c-.02-.047-.048-.143-.077-.181-.038-.22-.057-.326-.048-.565l.086-.613.144-.804c.029-.134.105-.48.086-.594.048-.067.086-.373.086-.47.039-.047.115-.535.106-.602.067-.106.095-.556.143-.718.02-.134.096-.431.086-.546.02-.02.01 0 .02-.038l.038-.163c.019-.067.048-.144.038-.21.029-.04.02-.02.038-.078.01-.028.02-.047.03-.076.018-.058.037-.096.037-.163.048-.048.106-.21.135-.287l.153-.287c.048-.03.096-.106.134-.154.048-.067.086-.095.143-.143.048-.038.316-.22.326-.24.086-.028.182-.095.278-.134.095-.038.182-.076.287-.105a2.89 2.89 0 01.65-.115c.68-.019 1.38 0 2.069 0 .66 0 1.283.058 1.637.44.077.077.24.297.288.431.038.115.086.202.114.326a1.914 1.914 0 01.02.66c-.01.077-.03.173-.03.26-.009.085-.037.19-.047.277-.01.096-.029.23-.058.306 0 .067-.028.173-.038.25a3.51 3.51 0 00-.048.277c-.01.029-.047.249-.047.287-.01.067-.03.144-.048.23-.02.096-.039.182-.039.277-.028.087-.038.202-.057.307-.02.124-.038.22-.058.335 0 .067-.038.23-.047.287-.01.058-.01.077-.02.144-.01.048-.028.105-.028.172-.01.067-.029.153-.048.23-.02.086-.038.182-.038.258-.01.058-.03.134-.048.211l-2.557.01c0-.182.115-.508.106-.68.047-.058.095-.421.086-.508.019-.028.01 0 .019-.047l.076-.508c.058-.067.106-.613.144-.737.02-.134.077-.335.067-.46.038-.057.038-.2.067-.268l.01-.096.028-.124c.077-.373-.067-.699-.46-.699-.315 0-.64.192-.736.46-.02.048-.02.076-.039.115-.019.095-.048.23-.048.325-.019.086-.028.144-.047.24-.02.095-.039.172-.039.277l-.038.144-.029.172c-.019.125-.048.24-.057.354-.029.02-.02.077-.029.125-.01.067-.02.086-.029.143-.01.087-.047.211-.047.297-.02.077-.03.144-.048.24-.02.095-.039.172-.039.277-.028.039-.067.316-.076.412-.01.067-.029.335-.01.402.02.057-.019.02.029.048-.048.134.124.47.2.603.049.077-.009.029.068.067-.01.048-.01.01 0 .048 0 .02.019.038.029.058l.46.622c.038.029-.03 0 .038.029 0 .057.23.325.277.363l.345.402c0 .01-.02.01.028.077l.431.536.24.297c.067.086.038.067.096.096.01.057.143.22.181.287.077.115.144.278.201.306-.019.058-.01.02.02.087.019.028.019.038.038.086l.124.354c.039.144.01.153.058.192-.048.115-.02.287-.02.411-.009.077-.018.096-.018.192-.02.029-.087.498-.087.574-.028.03 0-.01-.019.039 0 .01-.01.067-.01.067-.009.067-.018.105-.018.162-.02.039-.087.431-.087.489a2.315 2.315 0 00-.048.287c-.01.105-.047.201-.047.326-.02.019-.02.066-.03.105-.009.057-.009.086-.018.134-.02.096-.029.2-.048.287 0 .096-.048.23-.048.345-.02.029-.048.22-.048.277-.02.134-.057.268-.067.412a2.38 2.38 0 00-.067.412c-.029.019-.029.095-.029.134-.01.067-.019.096-.029.163-.019.114-.047.239-.057.354a1.436 1.436 0 00-.048.21 1.867 1.867 0 00-.057.25l-.163.46c-.086.21-.192.334-.23.43-.019.01-.134.172-.163.21l-.086.106-.105.115c-.077.105-.383.325-.527.383-.076.029-.143.048-.22.096-.086.01-.421.124-.727.134l-.853.019c-.162 0-.268.019-.411.019h-1.11c-.106 0-.125-.02-.221-.02-.048 0-.182-.028-.24-.038-.038-.01-.066-.01-.114-.019-.048-.01-.067-.028-.125-.028-.335-.077-.43-.192-.603-.316-.029-.02-.01-.01-.029-.02-.028-.047 0-.01-.038-.057-.01-.019-.02-.019-.029-.038l-.325-.613c-.01-.086-.039-.163-.048-.249-.01-.096.01-.182-.01-.268.029-.057.067-.498.077-.603.019-.153.095-.47.086-.594a.755.755 0 00.057-.325l.01-.03s.086-.315.067-.44c.038-.047.134-.612.124-.698l.039-.144c.01-.067.028-.105.01-.163l.018-.057c0-.01.01-.048.01-.058.01-.038.01-.076.02-.115.009-.076.037-.162.028-.239.048-.067.096-.383.086-.479.038-.057.115-.593.134-.708.058-.048 1.207-.02 1.274-.02h1.302l-.096.566-.038.22c-.02.105-.058.21-.058.325h-.038z" fill="#1C1C1C"/></svg><svg fill="none" viewBox="4.68 9 17.98 10.62" id="small-arrow-icon" xmlns="http://www.w3.org/2000/svg"><path d="M9.528 9.839l-3.681 3.68a1.118 1.118 0 000 1.581l3.68 3.68m-3.353-4.47h15.65" stroke="#6D5C42" stroke-width="1.677" stroke-linecap="round"/></svg></svg>