<?xml version="1.0" encoding="utf-8"?><svg viewBox="0 0 52 62.72" xmlns="http://www.w3.org/2000/svg" xmlns:xlink="http://www.w3.org/1999/xlink"><style>:root>svg{display:none}:root>svg:target{display:block}</style><svg viewBox="0.64 0.64 14.73 62.72" id="arrow-icon" xmlns="http://www.w3.org/2000/svg"><path d="M7.293 63.068a1 1 0 001.414 0l6.364-6.364a1 1 0 00-1.414-1.415L8 60.946 2.343 55.29A1 1 0 00.93 56.703l6.364 6.364zM7 .64v61.72h2V.64H7z"/></svg><svg viewBox="0 0 52 23" id="madeby-icon" xmlns="http://www.w3.org/2000/svg"><g clip-path="url(#ba)" fill-rule="evenodd" clip-rule="evenodd"><path d="M.92 18.924c.01-.085.028-.17.047-.246l.057-.314c.01-.047.01-.104.029-.16l.028-.124c.01-.086.029-.171.038-.266.01-.085.038-.17.048-.237 0-.057.085-.541.104-.58 0-.075.114-.787.133-.825.01-.133.057-.285.066-.418.01-.151.067-.35.086-.502.01-.133.047-.304.066-.437.01-.076.02-.133.038-.218.01-.057.029-.114.029-.19.028-.095.038-.275.066-.351.01-.143.048-.285.067-.427.01-.057.019-.095.028-.162.01-.047 0-.085.029-.104 0-.124.047-.247.047-.351.028-.162.066-.333.085-.494l.057-.332c.01-.038.02-.123.029-.162.01-.056.019-.075.019-.132.01-.086.028-.171.047-.257.01-.066.038-.17.038-.227.02-.095.038-.2.048-.285.01-.19.085-.38.085-.58.02-.046.048-.208.048-.255.019-.095.038-.2.047-.285l.086-.522c.009-.038.009-.048.009-.086 0-.019 0-.019.01-.037l.009-.02c0-.142.047-.313.066-.446 0-.056.048-.332.067-.36 0-.124.038-.171.038-.285.01-.047.047-.218.047-.275 0-.067.02-.095.029-.162l.076-.398c0-.124.019-.18.038-.294.01-.038.038-.219.047-.266.01-.086.029-.143.038-.237.01-.067.086-.598.114-.627 0-.085.01-.104.029-.18.009-.067.047-.399.075-.427 0-.105.02-.18.038-.285.02-.095.02-.161.048-.237l.104-.598c0-.076.086-.589.105-.617 0-.086.076-.541.104-.598 0-.067.048-.36.067-.399 0-.085.028-.237.047-.322 0-.057.123-.76.133-.798 0-.132.047-.294.066-.427 0-.076.01-.057.02-.114H24.58l-.095.627c-.019.095.01.038-.038.076l.01.047c-.029.142-.105.769-.152.835.01.086-.076.655-.114.712.01.095-.076.57-.104.683l-.057.323-.18.987c.009.067-.077.589-.105.636.01.143-.047.36-.076.513l-.085.503c-.01.019-.01.019-.01.038l-.01.028c.01.076-.009.256-.056.313.01.105-.038.304-.057.408-.02.114-.095.665-.133.712.01.086-.057.541-.104.598.009.048-.038.437-.086.494.019.123-.095.588-.114.759-.028.104-.038.218-.057.323l-.066.332c.01.047-.048.531-.105.607a.503.503 0 01-.057.314c.01.085-.018.18-.028.275l-.104.522c.01.066-.02.284-.057.332.01.095-.038.427-.086.493.01.095-.019.2-.038.295-.01.066-.028.237-.066.284.01.057 0 .105-.01.162 0 .028-.01.057-.019.085-.01.057 0 .029-.028.067.01.066 0 .104-.01.16 0 .02-.01.058-.01.077-.009.057 0 .028-.028.066l-.056.446c-.039.114.037-.095-.01.029 0 0-.01.019-.01.01 0 0 0 .009-.009.009.01.057 0 .104-.01.161l-.038.143c.02.075-.047.474-.085.531.01.095-.057.541-.104.598.01.095-.038.446-.086.503.01.076-.01.247-.047.304.01.085-.02.19-.038.285l-.067.417c-.01.067-.047.332-.076.39.02.094-.018.218-.037.322-.02.095-.02.228-.067.294.01.086-.019.18-.029.266-.009.076-.018.19-.056.237.019.114-.048.351-.067.475-.019.123-.019.35-.085.436.01.095-.038.446-.086.503.01.086-.066.56-.104.608.01.114-.057.427-.076.56-.019.142.01.161-.133.17H3.027v-.009c-.57 0-1.139 0-1.699.01H.312c.01-.076.029-.162.048-.247l.076-.494c.01-.038.028-.209.047-.228 0-.056.067-.493.086-.522 0-.066.019-.16.028-.218.21-1.215.048-.161.295-1.765l.028.028zm4.328 1.652h3.208c.996-4.907 2.325-12.728 3.208-17.862h-3.18C8.522 3.844 5.4 19.73 5.257 20.585l-.01-.01zm8.03-5.192c-.03.067-.039.19-.048.275-.01.086-.048.19-.048.285 0 .057-.028.133-.038.19-.01.067-.028.152-.038.228a2.064 2.064 0 00-.066.389c-.029.038-.105.522-.105.607l-.104.532c-.019.142-.066.256-.047.436.028.285.275.465.579.418.227-.038.208-.057.36-.142.057-.095.285-.285.266-.437.038-.057.104-.493.114-.56.028-.123.104-.503.095-.598l.01-.028c0-.01.075-.228.056-.361l.029-.095c.01-.028.01-.066.019-.104.009-.067.038-.143.019-.21.009-.018.009 0 .019-.037l.018-.085c.01-.067.01-.067.01-.124.047-.057.066-.313.085-.408.02-.123.086-.39.076-.493l.067-.285c.019-.105.047-.209.038-.304.028-.038.028-.095.019-.152.085-.133-.048-.645-.095-.787-.048-.133-.294-.532-.37-.57-.02-.048-.228-.332-.276-.36-.019-.058 0-.01-.038-.058l-.265-.332-.067-.104c-.085-.105-.484-.627-.522-.636-.019-.066-.18-.256-.237-.323-.047-.057-.209-.284-.247-.303-.019-.038-.247-.361-.284-.38-.048-.114-.133-.218-.2-.332a1.563 1.563 0 01-.095-.18c-.019-.048-.047-.143-.076-.181-.038-.218-.057-.323-.047-.56l.085-.607.143-.798c.028-.132.104-.474.085-.588.047-.066.085-.37.085-.465.038-.048.114-.532.105-.598.066-.104.095-.55.142-.712.02-.133.095-.427.086-.54.019-.02.01 0 .019-.039l.038-.161c.019-.067.047-.143.038-.209.028-.038.019-.019.038-.076l.028-.076c.019-.057.038-.095.038-.161.048-.048.105-.209.133-.285l.152-.285c.047-.028.095-.104.133-.152.047-.066.085-.094.142-.142.048-.038.313-.218.323-.237.085-.029.18-.095.275-.133.095-.038.18-.076.285-.104.218-.067.408-.095.645-.114.674-.02 1.367 0 2.05 0 .655 0 1.272.057 1.623.436.076.076.237.294.285.427.038.114.085.2.114.323a1.894 1.894 0 01.019.655c-.01.076-.029.17-.029.256-.01.086-.038.19-.047.275-.01.095-.029.228-.057.304 0 .067-.029.171-.038.247-.02.095-.038.19-.048.275-.01.029-.047.247-.047.285-.01.066-.029.142-.047.228-.02.095-.038.18-.038.275-.029.085-.038.2-.057.304-.02.123-.038.218-.057.332 0 .066-.038.228-.048.285-.01.056-.01.075-.019.142-.01.047-.028.104-.028.17-.01.067-.029.153-.048.228-.019.086-.038.18-.038.257a3.3 3.3 0 01-.047.209l-2.534.01c0-.181.114-.504.104-.675.048-.057.095-.417.086-.503.019-.028.01 0 .019-.047l.075-.503c.057-.067.105-.608.143-.731.019-.133.076-.332.066-.456.038-.057.038-.199.067-.265l.01-.095.028-.124c.076-.37-.067-.693-.456-.693-.313 0-.636.19-.73.456-.02.048-.02.076-.039.114-.019.095-.047.228-.047.323-.019.085-.029.142-.048.237-.018.095-.037.17-.037.275l-.039.142-.028.171c-.019.124-.047.238-.057.352-.028.018-.019.075-.028.123-.01.066-.02.085-.029.142-.01.086-.047.209-.047.294-.02.076-.029.143-.048.238s-.038.17-.038.275c-.028.038-.066.313-.076.408-.01.066-.028.332-.01.399.02.057-.018.019.03.047-.048.133.123.465.199.598.047.076-.01.029.066.067-.01.047-.01.01 0 .047 0 .019.019.038.028.057l.456.617c.038.028-.028 0 .038.028 0 .057.228.323.275.361l.342.399c0 .01-.019.01.028.076l.427.531.238.294c.066.086.038.067.095.095.01.057.142.218.18.285.076.114.142.275.2.304-.02.057-.01.019.018.085.02.029.02.038.038.085l.124.352c.038.142.01.152.056.19-.047.114-.018.284-.018.408-.01.076-.02.095-.02.19a4.287 4.287 0 00-.085.569c-.028.028 0-.01-.019.038 0 .01-.01.066-.01.066-.009.067-.018.105-.018.162a3.663 3.663 0 00-.086.484c-.019.076-.038.19-.047.284-.01.105-.048.2-.048.323-.019.02-.019.067-.028.105-.01.056-.01.085-.019.132-.019.095-.029.2-.048.285 0 .095-.047.228-.047.342a1.108 1.108 0 00-.047.275c-.02.133-.057.266-.067.408a2.444 2.444 0 00-.066.408c-.029.02-.029.095-.029.133-.01.067-.019.095-.028.162-.02.113-.048.237-.057.35a1.354 1.354 0 00-.048.21 1.89 1.89 0 00-.057.246l-.16.456c-.086.209-.19.332-.229.427-.019.01-.133.17-.161.209l-.085.104-.105.114c-.076.104-.38.323-.522.38-.076.028-.142.047-.218.095-.086.01-.418.123-.721.133l-.845.018c-.162 0-.266.02-.408.02h-1.101c-.105 0-.124-.02-.219-.02-.047 0-.18-.028-.237-.038-.038-.009-.066-.009-.114-.018-.047-.01-.066-.029-.123-.029-.332-.076-.427-.19-.598-.313-.028-.02-.01-.01-.028-.02-.029-.047 0-.009-.038-.056-.01-.019-.02-.019-.029-.038l-.323-.607c-.01-.086-.038-.162-.047-.247-.01-.095.01-.18-.01-.266.029-.057.067-.493.076-.598.02-.152.095-.465.086-.588a.749.749 0 00.057-.323l.01-.028s.085-.314.066-.437c.038-.047.133-.607.123-.693l.038-.142c.01-.067.029-.105.01-.162l.018-.057c0-.009.01-.047.01-.056.01-.038.01-.076.019-.114.01-.076.038-.162.028-.238.048-.066.095-.38.086-.474.038-.057.114-.589.133-.703.057-.047 1.196-.018 1.262-.018h1.29l-.094.56-.038.218c-.019.104-.057.209-.057.322h-.038zm18.887-6.15l.075 1.196c.01.066.01.114.01.209 0 .095.019.104.019.2 0 .265.047.54.047.815l.029.39c.019.142.019.275.019.417 0 .114.028.275.038.39l.028.588c0 .095.02.114.02.199l.047.816c0 .095.019.105.019.2 0 .237.028.35.028.607l.038.408h-1.69l.314-1.614c.047-.275.114-.531.161-.806.02-.133.048-.257.076-.399.029-.142.057-.266.076-.408l.313-1.613c.057-.266.095-.541.162-.807l.114-.598c.01-.038.01-.048.019-.105l.028-.104.01.019zm9.149 2.828h-1.642c-.067 0-.038-.056-.038-.132l.19-3.01c0-.094.019-.103.019-.189l.057-1.006c.01-.066.01-.123.01-.2 0-.17.047-.597.047-.797 0-.094.018-.113.018-.199l.02-.408c.009-.114.028-.285.028-.408h1.756c.484 0 .341.36.341.74l-.218 3.398c0 .076.01.142 0 .218-.047.427-.047.978-.095 1.395-.028.257.076.589-.493.589v.01zM29.83 20.908c.038-.18.076-.38.114-.56.038-.2.076-.38.114-.579.038-.19.076-.38.114-.579.037-.19.075-.389.123-.57H32.8c0 .162.048.418.048.58.01.284.057.579.066.863.01.19.048.39.048.589 0 .085-.01.256.066.256h5.99c.075 0 .047-.133.066-.323.018-.237.018-.493.047-.73.01-.057 0-.124 0-.18l.066-.921c.02-.171.01-.39.038-.56.029-.18.02-.37.038-.56.01-.057 0-.114.01-.18l.095-1.472c0-.076 0-.123.01-.2.028-.208.047-.54.047-.749h.436c.067 0 .057.085.076.142l.484 2.031.18.75c.19.74.37 1.471.532 2.221l.133.56c.019.067.01.162.076.162h3.768c0-.086-.067-.276-.095-.37l-.39-1.453c-.151-.617-.34-1.224-.493-1.841-.152-.607-.341-1.224-.484-1.832-.028-.123-.076-.247-.104-.37.465 0 .816-.123 1.072-.332.427-.342.693-.864.684-1.443l.209-3.322c.018-.104.009-.237.028-.332l.038-.674c0-.076.01-.095.019-.151.01-.067 0-.114.01-.18.028-.162.018-.333.028-.494l.047-.665c.01-.161.01-.35.029-.512l.057-1.006h1.13c0 .313-.048.617-.048.93l-.067.93c-.019.161-.01.313-.019.474l-.066.93c0 .171-.01.333-.029.475l-.227 3.74c-.02.132-.02.332-.029.465 0 .085-.019.114-.019.218l-.304 4.935c-.01.143-.038.314-.038.456l-.056.94a3.747 3.747 0 00-.029.474h3.72c.076 0 .048-.104.048-.19 0-.152.038-.304.038-.474l.076-1.177a3.61 3.61 0 00.028-.465c0-.086.02-.124.02-.238 0-.113.018-.142.018-.237 0-.123.01-.341.029-.465.028-.161.01-.323.028-.484.01-.142.029-.304.029-.456l.038-.474c0-.104.01-.142.019-.218l.038-.731c.019-.275.056-.655.066-.93l.048-.95c.009-.142.038-.303.038-.455 0-.161.028-.323.037-.475.01-.332.038-.616.048-.949l.332-5.153c.01-.086.01-.152.01-.247 0-.085.019-.123.019-.237h2.467c-.066-.276-.114-.56-.18-.854l-.256-1.282-.086-.436-.085-.418c-.029-.152-.076-.294-.076-.446H45.65c-.01.066-.028.114-.047.17-.057.162-.133.343-.171.504h-.038c-.019-.067-.086-.114-.133-.162a1.43 1.43 0 00-.351-.237c-.313-.19-.807-.275-1.224-.275H36.53c0 .256-.038.456-.038.693 0 .076-.01.104-.01.152-.009.066 0 .123-.009.18-.01.095-.019.247-.028.342-.01.057 0 .114 0 .17l-.057.874c-.029.209-.038.778-.057 1.044l-.028.512c0 .18-.038.332-.038.503l-.105 1.557c-.01.285-.057.579-.047.863 0 .285-.038.58-.048.864l-.133 2.05c0 .408-.066.826-.066 1.234h-.019c0-.342-.123-.987-.152-1.367l-.028-.227c-.01-.095-.01-.143-.02-.228l-.322-2.724c-.085-.598-.123-1.224-.218-1.813l-.057-.455-.484-4.1c-.02-.171-.038-.114-.399-.114h-3.569l-.645 2.666c-.503 2.003-.968 4.015-1.471 6.027a17.06 17.06 0 00-.161.665l-1.054 4.337-.085.342-.978 4.014c-.01.029-.085.332-.085.332.01.048 0 .029.057.029h3.654v.038z"/></g><defs><clipPath id="ba"><path transform="translate(.313 .986)" d="M0 0h51.612v21.383H0z"/></clipPath></defs></svg><svg fill="none" viewBox="4.68 9 17.98 10.62" id="small-arrow-icon" xmlns="http://www.w3.org/2000/svg"><path d="M9.528 9.839l-3.681 3.68a1.118 1.118 0 000 1.581l3.68 3.68m-3.353-4.47h15.65" stroke="#6D5C42" stroke-width="1.677" stroke-linecap="round"/></svg></svg>