<svg xmlns="http://www.w3.org/2000/svg" fill="none" viewBox="2.81 3.06 19.5 19.5"><path d="m4.345 5.747-.53-.53.53.53ZM5.632 4.46l.53.53-.53-.53Zm3.27.052-.531.53.53-.53Zm1.992 1.993.53-.53-.53.53Zm.053 3.27.53.53-.53-.53Zm4.65 4.65.53.53-.53-.53Zm3.27.053.53-.53-.53.53Zm1.993 1.993-.53.53.53-.53Zm-7.332-1.688.477-.579-.477.579Zm1.793-.081-.53-.53.53.53Zm-4.65-4.65-.53-.531.53.53Zm-.081 1.793.578-.478-.578.477Zm-2.674 5.61c2.17 2.17 4.565 3.753 6.711 4.54 2.082.764 4.221.87 5.529-.438l-1.06-1.06c-.647.646-1.988.811-3.952.09-1.9-.697-4.116-2.141-6.167-4.192l-1.06 1.06ZM3.815 5.217c-1.308 1.308-1.202 3.447-.438 5.529.787 2.146 2.37 4.542 4.54 6.71l1.06-1.06c-2.05-2.05-3.495-4.267-4.192-6.167-.72-1.964-.556-3.305.09-3.951l-1.06-1.06Zm5.617-1.234c-1.194-1.194-3.133-1.25-4.33-.053l1.06 1.061c.58-.58 1.568-.588 2.209.053l1.06-1.061Zm1.993 1.993L9.432 3.982 8.37 5.042l1.993 1.994 1.06-1.061Zm.052 4.33c1.197-1.197 1.142-3.136-.052-4.33l-1.06 1.06c.64.641.631 1.63.051 2.21l1.061 1.06Zm-.276.276.276-.276-1.06-1.06-.277.276 1.06 1.06Zm1.315 2.275a21.03 21.03 0 0 1-1.348-1.489l-1.157.955c.443.536.922 1.073 1.444 1.595l1.06-1.06Zm1.489 1.348a21.009 21.009 0 0 1-1.49-1.348l-1.06 1.061a22.552 22.552 0 0 0 1.595 1.444l.955-1.157Zm1.062-.31-.276.277 1.06 1.06.277-.275-1.06-1.061Zm4.33.053c-1.194-1.194-3.133-1.25-4.33-.052l1.06 1.06c.58-.579 1.569-.588 2.21.053l1.06-1.06Zm1.993 1.993-1.993-1.993-1.06 1.061 1.992 1.993 1.061-1.06Zm.053 4.33c1.197-1.197 1.141-3.136-.053-4.33l-1.06 1.061c.64.64.632 1.63.052 2.209l1.06 1.06Zm-8.393-4.909c.84.693 2.05.622 2.801-.13l-1.06-1.06a.583.583 0 0 1-.786.033l-.955 1.157Zm-2.91-5.84a2.083 2.083 0 0 0-.129 2.8l1.157-.954a.583.583 0 0 1 .033-.786l-1.06-1.06ZM5.102 3.929 3.815 5.216l1.06 1.06L6.163 4.99l-1.06-1.06Zm15.054 17.628 1.287-1.287-1.061-1.06-1.287 1.287 1.06 1.06Z" fill="#9C8364"/></svg>