<svg xmlns="http://www.w3.org/2000/svg" fill="none" viewBox="3.81 2.56 17.5 20.5"><path d="M19.814 11.225c0 2.447-1.462 5.045-3.22 7.088-.867 1.009-1.777 1.847-2.554 2.426a7.13 7.13 0 0 1-1.01.646 2.38 2.38 0 0 1-.34.144c-.091.029-.13.03-.127.03v1.5c.382 0 .787-.156 1.14-.334.379-.19.798-.459 1.234-.784.873-.65 1.862-1.566 2.795-2.65 1.843-2.142 3.582-5.084 3.582-8.066h-1.5Zm-7.25 10.334c.003 0-.036-.001-.127-.03a2.385 2.385 0 0 1-.34-.144 7.125 7.125 0 0 1-1.01-.646c-.777-.58-1.687-1.417-2.555-2.426-1.757-2.043-3.219-4.641-3.219-7.088h-1.5c0 2.982 1.74 5.925 3.582 8.066.932 1.084 1.922 2 2.795 2.65.436.325.855.593 1.233.784.354.178.76.334 1.14.334v-1.5Zm-7.25-10.334c0-3.95 3.238-7.166 7.25-7.166v-1.5c-4.826 0-8.75 3.872-8.75 8.666h1.5Zm7.25-7.166c4.011 0 7.25 3.216 7.25 7.166h1.5c0-4.794-3.925-8.666-8.75-8.666v1.5Z" fill="#9C8364"/><circle r="3" transform="matrix(-1 0 0 1 12.563 10.809)" stroke="#9C8364" stroke-width="1.5"/></svg>