<svg xmlns="http://www.w3.org/2000/svg" fill="none" viewBox="0.56 0.48 104.43 106.27"><path d="M62.87 103.643c9.467-3.738 16.352-12.594 17.327-23.174h15.32c.057.115.115.23.23.345-7.287 11.558-19.05 20.011-32.878 22.829ZM9.622 80.757c.058-.058.058-.173.115-.288h15.435c.975 10.523 7.86 19.378 17.328 23.174-13.828-2.818-25.648-11.271-32.935-22.886h.057ZM4.46 37.687a26.07 26.07 0 0 0-.345 4.255c0 9.603 4.877 18.056 12.336 23.059L8.705 78.57c-.114-.057-.286-.057-.401-.057-4.074-7.36-6.426-15.756-6.426-24.726 0-5.578.918-10.983 2.582-15.986v-.115ZM51.337 2.783c.114.173.23.345.344.46l-7.86 13.8a27.462 27.462 0 0 0-12.05-2.76c-6.77 0-12.967 2.473-17.787 6.556C23.05 10.143 36.418 3.243 51.394 2.84l-.057-.058Zm39.647 17.423c-4.762-3.852-10.787-6.21-17.385-6.21-4.36 0-8.435 1.035-12.107 2.818L53.746 3.243c.115-.115.287-.287.345-.46 14.688.403 27.827 7.073 36.893 17.423ZM78.82 68.853a27.724 27.724 0 0 0 8.894-3.392l7.803 13.685H80.312c0-.402.057-.805.057-1.207 0-3.163-.516-6.21-1.549-9.085ZM67.92 79.147l5.565-9.775h.058c1.606 0 3.213-.172 4.762-.402.975 2.817 1.549 5.807 1.549 8.97 0 .402 0 .805-.057 1.207H67.918ZM54.09 104.62c-.115-.172-.23-.345-.402-.517l13.484-23.634h12.565c-1.09 11.443-9.295 20.873-20.14 23.749a56.63 56.63 0 0 1-5.45.46l-.057-.058ZM38.312 80.469l13.484 23.634c-.173.115-.287.287-.402.517-1.836-.057-3.672-.172-5.45-.46-10.845-2.818-19.107-12.248-20.14-23.748h12.565l-.057.057Zm-12.68-2.588c0-3.047.516-5.98 1.434-8.683 1.55.288 3.098.403 4.705.403h.344l5.451 9.545H25.69c0-.402-.057-.805-.057-1.207v-.058Zm.918-8.797a27.716 27.716 0 0 0-1.435 8.797c0 .403 0 .805.058 1.208H9.968l7.688-13.456a28.141 28.141 0 0 0 8.951 3.45h-.057ZM23.738 54.88l5.164 9.028c-.86 1.495-1.606 3.048-2.18 4.658-3.156-.575-6.14-1.783-8.836-3.393l5.91-10.35-.058.057Zm28.46-30.764c-.804.978-1.55 2.07-2.239 3.163H39.517l5.279-9.2c2.811 1.552 5.336 3.622 7.459 6.037h-.058ZM65.91 27.28H55.18a31.75 31.75 0 0 0-2.294-3.163 26.858 26.858 0 0 1 7.63-6.267l5.394 9.488v-.058Zm10.615 36.63 5.164-9.029 5.738 10.063c-2.697 1.61-5.623 2.76-8.779 3.335a31.062 31.062 0 0 0-2.066-4.427l-.057.057Zm-.287.517c.746 1.265 1.377 2.587 1.836 3.967-1.434.23-2.869.403-4.36.403l2.467-4.37h.057Zm-15.147 1.322 6.196-10.753c3.27 2.07 6.025 4.888 8.148 8.108l-3.213 5.636c-4.017-.173-7.746-1.266-11.131-2.99Zm-7.689 13.34 7.46-12.88c3.384 1.725 7.114 2.818 11.073 3.048l-5.623 9.833h-12.91Zm-.459 1.324h12.623l-12.623 22.195V80.412Zm-.516 0v22.195L39.804 80.412h12.623Zm-7.804-14.089 7.345 12.766h-12.91l-5.451-9.603c3.96-.288 7.689-1.38 11.016-3.163Zm-13.827-23.92h.057l7 12.075c-3.27 2.07-6.025 4.83-8.148 8.05l-5.163-9.085 6.31-11.098-.056.057Zm-1.09-.748L23.737 52.12 10.541 28.947l19.164 12.708Zm.229-.46-19.107-12.65h26.279l-7.23 12.65h.058Zm15.95.402v.058H31.198l7.46-13.11h10.442c-2.066 3.91-3.27 8.337-3.27 12.995l.057.057Zm28.23.058H59.312c-.057-4.715-1.262-9.2-3.385-13.11h10.73l7.458 13.11Zm1.263-.518-7.173-12.535h26.509L75.377 41.137Zm.229.46 19.107-12.42-13.082 23-6.025-10.58Zm-1.09.805L80.886 53.5l-5.164 9.086a27.9 27.9 0 0 0-8.148-8.05l7-12.134h-.057Zm-15.492 8.51v-.114c0-.575-.344-1.093-.803-1.323.574-2.07.918-4.198 1.033-6.44h13.368l-6.254 10.81a27.266 27.266 0 0 0-7.344-2.932Zm-5.279 9.259c.287-.288.402-.633.402-1.035 0-.346-.115-.633-.287-.863 1.377-1.84 2.467-3.853 3.328-5.98h.23c.63 0 1.147-.403 1.377-.92a28.355 28.355 0 0 1 7.23 2.875l-6.198 10.81a26.752 26.752 0 0 1-6.139-4.887h.057Zm-7.459-8.74c.23.517.746.862 1.377.862.115 0 .23 0 .345-.058a29.934 29.934 0 0 0 3.385 5.923c-.172.23-.287.575-.287.92 0 .46.172.863.516 1.15-1.778 1.955-3.844 3.623-6.139 5.003l-6.311-10.983a25.55 25.55 0 0 1 7.114-2.818Zm.746-2.013c-.516.23-.86.747-.86 1.38v.172a28.35 28.35 0 0 0-7.23 2.875l-6.254-10.81h13.254c.115 2.185.517 4.37 1.09 6.383Zm10.5-.173c-.688 0-1.32.46-1.492 1.15-1.09-.115-2.237-.23-3.385-.23-1.205 0-2.352.058-3.5.23a1.548 1.548 0 0 0-1.492-1.15h-.172c-.573-2.012-.975-4.083-1.09-6.268h12.336a31.755 31.755 0 0 1-.975 6.268h-.23Zm-3.959 8.626a1.585 1.585 0 0 0-.918-.288c-.344 0-.63.115-.86.288-1.32-1.783-2.41-3.738-3.328-5.808.401-.23.688-.69.688-1.15 1.148-.173 2.295-.23 3.443-.23 1.147 0 2.238.057 3.328.23.057.517.344.977.803 1.265-.86 2.07-1.95 3.967-3.213 5.75l.057-.057Zm-.918 19.78-6.885-11.96a27.107 27.107 0 0 0 6.312-5.118c.172.058.401.115.63.115.23 0 .46-.057.69-.172 1.835 1.955 3.958 3.68 6.31 5.002l-7 12.133h-.057Zm-2.18-50.43c.631-.977 1.262-1.897 2.008-2.76a18.817 18.817 0 0 1 2.008 2.76h-4.016Zm4.82 1.323a26.576 26.576 0 0 1 3.442 13.11H46.345v-.057c0-4.715 1.205-9.143 3.328-12.995h5.623v-.058ZM31.714 69.026h-.058c-1.549 0-3.04-.115-4.533-.402.517-1.496 1.205-2.876 1.951-4.256l2.64 4.658Zm-1.836-5.923c2.123-3.277 4.877-6.038 8.147-8.108l6.312 10.926a26.784 26.784 0 0 1-11.074 3.105l-3.328-5.865-.057-.058Zm70.688-21.506c0 9.43-4.82 17.711-12.106 22.599L82.378 53.5l14.057-24.668c.172.115.402.172.631.172h.057a50.96 50.96 0 0 1 2.295 4.715 27.252 27.252 0 0 1 1.148 7.878Zm-7.344-18.573c.86 1.15 1.721 2.357 2.467 3.623a.973.973 0 0 0-.172.575H67.345l-5.738-10.063c3.557-1.725 7.574-2.76 11.82-2.76 7.803 0 14.803 3.335 19.795 8.625Zm-33.05-5.693c-2.926 1.61-5.565 3.795-7.745 6.325a28.707 28.707 0 0 0-7.517-6.095L52.6 4.048l7.574 13.226v.057Zm-28.516-2.645c4.246 0 8.263.978 11.82 2.703l-5.623 9.833H9.623a.929.929 0 0 0-.172-.518c.631-1.035 1.32-2.012 2.008-2.99 4.992-5.52 12.164-8.97 20.14-8.97l.057-.058ZM5.722 34.064a52.524 52.524 0 0 1 2.467-5.117c.23 0 .459-.058.631-.173L22.878 53.5l-6.255 10.983C9.337 59.596 4.574 51.315 4.574 41.885c0-2.703.402-5.348 1.148-7.82ZM97.18 78.226c-.115 0-.23-.057-.344-.057-.115 0-.23 0-.345.057l-7.746-13.57a27.619 27.619 0 0 0 12.336-23.059c0-1.495-.114-2.99-.344-4.427a50.537 50.537 0 0 1 2.754 16.503 50.946 50.946 0 0 1-6.311 24.61v-.057Zm7.688-24.61c0-9.029-2.237-17.654-6.483-25.302.172-.23.287-.575.287-.862 0-.863-.689-1.553-1.55-1.553h-.172a51.553 51.553 0 0 0-7.344-9.258c-9.525-9.545-22.09-14.95-35.516-15.296-.23-.517-.746-.862-1.377-.862s-1.148.345-1.377.862C37.91 1.69 25.345 7.095 15.82 16.641a53.268 53.268 0 0 0-7.344 9.2h-.23c-.86 0-1.549.69-1.549 1.553 0 .345.115.69.344.92C2.796 35.962.558 44.587.558 53.615c0 9.028 2.295 17.711 6.54 25.359-.171.23-.286.575-.286.92 0 .862.688 1.552 1.55 1.552h.229a53.077 53.077 0 0 0 7.287 9.143c9.524 9.546 22.09 14.951 35.516 15.296.23.518.746.863 1.377.863s1.148-.345 1.377-.863c13.426-.345 25.992-5.75 35.516-15.296 2.87-2.875 5.337-5.98 7.402-9.373a1.563 1.563 0 0 0 1.434-1.552c0-.23-.057-.46-.114-.633 4.303-7.705 6.598-16.388 6.598-25.473l-.115.057Z" fill="#E6E6E6"/></svg>