<svg xmlns="http://www.w3.org/2000/svg" fill="none" viewBox="0.84 -0.06 130.53 132.6"><path d="M78.729 128.661a34.508 34.508 0 0 0 21.66-28.916h19.149c.072.144.144.287.287.431-9.108 14.422-23.811 24.969-41.096 28.485Zm-66.557-28.557c.071-.072.071-.215.143-.359h19.293c1.22 13.131 9.826 24.181 21.66 28.916-17.285-3.516-32.06-14.063-41.168-28.557h.072ZM5.717 46.362a32.475 32.475 0 0 0-.43 5.31c0 11.982 6.096 22.53 15.42 28.772l-9.683 16.933c-.143-.071-.359-.071-.502-.071-5.092-9.184-8.033-19.66-8.033-30.854 0-6.96 1.148-13.704 3.228-19.947v-.143ZM64.313 2.809c.143.215.287.43.43.574l-9.825 17.22a34.377 34.377 0 0 0-15.062-3.444c-8.463 0-16.209 3.085-22.234 8.18C28.954 11.993 45.665 3.383 64.385 2.88l-.072-.071Zm49.559 21.74c-5.952-4.807-13.483-7.749-21.731-7.749-5.451 0-10.543 1.292-15.133 3.516L67.325 3.383c.144-.144.359-.36.43-.574 18.361.502 34.785 8.825 46.117 21.74ZM98.668 85.251a34.69 34.69 0 0 0 11.116-4.233l9.754 17.077h-19.006c0-.502.072-1.005.072-1.507 0-3.946-.645-7.749-1.936-11.337ZM85.04 98.095l6.957-12.198h.072c2.008 0 4.016-.215 5.953-.502 1.22 3.516 1.936 7.247 1.936 11.193 0 .502 0 1.005-.071 1.507H85.04Zm-17.284 31.786c-.144-.215-.287-.43-.502-.646l16.854-29.49h15.707c-1.363 14.279-11.619 26.046-25.174 29.634-2.224.287-4.519.502-6.814.574l-.071-.072ZM48.032 99.745l16.855 29.49c-.215.144-.359.359-.502.646-2.295-.072-4.59-.215-6.814-.574-13.555-3.516-23.883-15.283-25.174-29.633h15.707l-.072.071Zm-15.85-3.229c0-3.802.645-7.462 1.793-10.834 1.936.359 3.873.502 5.881.502h.43L47.1 98.095H32.254c0-.502-.072-1.005-.072-1.507v-.072Zm1.147-10.978a34.53 34.53 0 0 0-1.793 10.978c0 .503 0 1.005.072 1.507H12.602l9.61-16.79a35.217 35.217 0 0 0 11.19 4.305h-.073Zm-3.514-17.722L36.27 79.08c-1.076 1.865-2.008 3.803-2.726 5.812-3.944-.718-7.674-2.225-11.045-4.234l7.388-12.915-.072.072Zm35.574-38.388c-1.004 1.22-1.937 2.583-2.797 3.947H49.538l6.599-11.48c3.514 1.937 6.67 4.52 9.323 7.534h-.071Zm17.141 3.947H69.118a39.637 39.637 0 0 0-2.869-3.947 33.558 33.558 0 0 1 9.54-7.82l6.741 11.839v-.072ZM95.8 79.08l6.455-11.265 7.172 12.556c-3.371 2.01-7.029 3.444-10.974 4.162-.717-1.937-1.578-3.731-2.582-5.525l-.071.072Zm-.359.645c.932 1.579 1.721 3.23 2.295 4.951-1.793.287-3.586.503-5.45.503l3.083-5.454h.072Zm-18.934 1.65L84.25 67.96c4.089 2.583 7.531 6.1 10.185 10.117l-4.017 7.032c-5.02-.215-9.682-1.579-13.913-3.731Zm-9.611 16.647 9.324-16.072c4.231 2.152 8.893 3.516 13.842 3.803l-7.029 12.27H66.895Zm-.574 1.65H82.1L66.32 127.37V99.673Zm-.645 0v27.697L49.897 99.673h15.779Zm-9.754-17.579 9.18 15.93H48.965L42.15 86.04c4.949-.36 9.61-1.722 13.77-3.947ZM38.637 52.246h.072l8.75 15.067c-4.089 2.584-7.531 6.028-10.185 10.046l-6.455-11.337 7.89-13.848-.072.072Zm-1.363-.933-7.459 13.059-16.496-28.916 23.955 15.857Zm.287-.574L13.678 34.953h32.848L37.49 50.74h.072Zm19.938.502v.072H39.14l9.324-16.36h13.053c-2.582 4.88-4.088 10.404-4.088 16.216l.071.072Zm35.287.072H74.282c-.072-5.884-1.578-11.48-4.231-16.36h13.412l9.323 16.36Zm1.578-.646L85.4 35.025h33.135l-24.17 15.642Zm.287.574 23.883-15.498-16.352 28.7-7.53-13.202Zm-1.363 1.005 7.961 13.848-6.454 11.336A34.844 34.844 0 0 0 84.61 67.385l8.75-15.14h-.072ZM73.924 62.864v-.144c0-.717-.43-1.363-1.005-1.65a36.87 36.87 0 0 0 1.291-8.036h16.712l-7.818 13.49a34.123 34.123 0 0 0-9.18-3.66Zm-6.599 11.552c.359-.359.502-.79.502-1.292 0-.43-.143-.789-.358-1.076 1.721-2.296 3.084-4.807 4.16-7.462h.286c.79 0 1.435-.502 1.722-1.148a35.48 35.48 0 0 1 9.037 3.587l-7.746 13.49a33.431 33.431 0 0 1-7.674-6.1h.071ZM58.001 63.51c.287.645.933 1.076 1.722 1.076.143 0 .287 0 .43-.072 1.148 2.655 2.582 5.166 4.232 7.39-.216.288-.359.718-.359 1.149 0 .574.215 1.076.646 1.435-2.224 2.44-4.806 4.52-7.675 6.242l-7.889-13.705a31.97 31.97 0 0 1 8.894-3.515Zm.933-2.512c-.646.287-1.076.933-1.076 1.722v.216a35.473 35.473 0 0 0-9.037 3.587l-7.817-13.49H57.57c.144 2.727.646 5.454 1.363 7.965Zm13.125-.215c-.86 0-1.65.574-1.865 1.435-1.363-.144-2.797-.287-4.231-.287-1.507 0-2.941.072-4.375.287a1.935 1.935 0 0 0-1.865-1.435h-.215c-.718-2.511-1.22-5.094-1.363-7.82h15.42a39.553 39.553 0 0 1-1.22 7.82h-.286ZM67.11 71.547c-.287-.215-.717-.359-1.147-.359-.43 0-.79.144-1.076.359-1.65-2.224-3.013-4.664-4.16-7.247.502-.287.86-.861.86-1.435 1.435-.215 2.87-.287 4.304-.287 1.434 0 2.797.072 4.16.287.071.646.43 1.22 1.004 1.578-1.076 2.583-2.439 4.951-4.017 7.175l.072-.071Zm-1.147 24.682-8.607-14.924a33.868 33.868 0 0 0 7.89-6.386c.215.072.501.144.788.144.287 0 .574-.072.86-.216 2.296 2.44 4.95 4.593 7.89 6.243l-8.75 15.14h-.071Zm-2.726-62.926c.79-1.22 1.578-2.368 2.51-3.444.933 1.076 1.793 2.224 2.51 3.444h-5.02Zm6.025 1.65a33.116 33.116 0 0 1 4.303 16.36H58.073v-.072a33.443 33.443 0 0 1 4.16-16.216h7.029v-.072ZM39.784 85.467h-.071c-1.937 0-3.802-.144-5.666-.503.645-1.865 1.506-3.587 2.438-5.31l3.3 5.813Zm-2.295-7.39c2.654-4.09 6.097-7.535 10.185-10.118l7.889 13.633a33.525 33.525 0 0 1-13.842 3.875l-4.16-7.32-.072-.07ZM125.85 51.24c0 11.767-6.025 22.1-15.133 28.198l-7.603-13.345 17.572-30.782c.215.144.502.215.789.215h.072a63.602 63.602 0 0 1 2.868 5.884 33.912 33.912 0 0 1 1.435 9.83Zm-9.18-23.176c1.075 1.435 2.151 2.942 3.084 4.52a1.21 1.21 0 0 0-.216.718H84.323l-7.172-12.556c4.447-2.153 9.467-3.445 14.775-3.445 9.754 0 18.504 4.162 24.744 10.763Zm-41.312-7.103c-3.658 2.009-6.957 4.735-9.682 7.893a35.875 35.875 0 0 0-9.396-7.606l9.61-16.862 9.468 16.503v.072Zm-35.645-3.3c5.307 0 10.327 1.219 14.774 3.372l-7.029 12.27H12.172c0-.216-.072-.431-.216-.647.79-1.291 1.65-2.511 2.51-3.73 6.24-6.889 15.206-11.194 25.175-11.194l.072-.072ZM7.295 41.841a65.497 65.497 0 0 1 3.084-6.386c.286 0 .573-.072.789-.216l17.571 30.854-7.817 13.704C11.813 73.7 5.86 63.368 5.86 51.6c0-3.373.502-6.673 1.435-9.758Zm114.323 55.105c-.143 0-.287-.072-.43-.072-.143 0-.287 0-.43.072l-9.683-16.934a34.447 34.447 0 0 0 15.42-28.772c0-1.865-.143-3.731-.43-5.525a62.98 62.98 0 0 1 3.443 20.593 63.476 63.476 0 0 1-7.89 30.71v-.072Zm9.611-30.71c0-11.265-2.797-22.028-8.105-31.57.216-.288.359-.718.359-1.077a1.929 1.929 0 0 0-1.936-1.937h-.216a64.358 64.358 0 0 0-9.18-11.552C100.245 8.19 84.538 1.445 67.756 1.015c-.287-.646-.933-1.077-1.722-1.077-.789 0-1.434.431-1.721 1.077-16.783.43-32.49 7.175-44.395 19.086a66.485 66.485 0 0 0-9.18 11.48h-.288a1.929 1.929 0 0 0-1.936 1.937c0 .43.143.861.43 1.148C3.637 44.21.84 54.972.84 66.237s2.868 22.1 8.176 31.643c-.215.287-.359.717-.359 1.148 0 1.076.86 1.937 1.937 1.937h.287a66.29 66.29 0 0 0 9.108 11.409c11.906 11.91 27.613 18.655 44.396 19.086.287.645.932 1.076 1.721 1.076s1.434-.431 1.721-1.076c16.783-.431 32.49-7.176 44.396-19.086 3.586-3.588 6.67-7.463 9.252-11.696a1.952 1.952 0 0 0 1.793-1.937c0-.287-.072-.574-.144-.79 5.38-9.614 8.248-20.449 8.248-31.786l-.143.072Z" fill="#E6E6E6"/></svg>