<svg xmlns="http://www.w3.org/2000/svg" fill="none" viewBox="0.61 0.81 63 92"><path d="M32.114.809c-17.37 0-31.5 14.186-31.5 31.624v.12A35.19 35.19 0 0 0 5.442 50.34L29.57 91.478a2.688 2.688 0 0 0 2.309 1.33h.01c.945 0 1.822-.498 2.308-1.314L58.662 50.43a35.175 35.175 0 0 0 4.952-17.996c0-17.438-14.131-31.624-31.5-31.624Zm-.227 46c-7.576 0-13.74-6.188-13.74-13.794 0-7.606 6.164-13.794 13.74-13.794 7.576 0 13.74 6.188 13.74 13.794 0 7.606-6.164 13.794-13.74 13.794Z" fill="#533519"/><circle cx="32.114" cy="32.309" r="24.302" fill="#fff"/><path d="M35.695 50.051a9.806 9.806 0 0 0 6.146-8.218h5.433c.02.04.04.081.081.122-2.584 4.1-6.756 7.097-11.66 8.096Zm-18.884-8.117c.02-.02.02-.06.04-.101h5.474c.346 3.732 2.788 6.872 6.146 8.218-4.904-.999-9.096-3.997-11.68-8.117h.02ZM14.979 26.66c-.081.49-.122 1-.122 1.51 0 3.405 1.73 6.403 4.375 8.177l-2.747 4.814c-.04-.02-.102-.02-.142-.02a18.032 18.032 0 0 1-2.28-8.77c0-1.979.326-3.896.916-5.67v-.04ZM31.605 14.28c.04.061.081.123.122.163l-2.788 4.895a9.74 9.74 0 0 0-4.273-.98 9.726 9.726 0 0 0-6.309 2.326c3.216-3.793 7.957-6.24 13.268-6.384l-.02-.02Zm14.061 6.18c-1.689-1.367-3.825-2.203-6.166-2.203a9.777 9.777 0 0 0-4.293 1l-2.748-4.814a.492.492 0 0 0 .123-.163c5.21.143 9.87 2.509 13.084 6.18Zm-4.314 17.253a9.832 9.832 0 0 0 3.154-1.203l2.768 4.853h-5.393c0-.142.02-.285.02-.428a9.49 9.49 0 0 0-.549-3.222Zm-3.866 3.65 1.974-3.466h.02c.57 0 1.14-.062 1.69-.143.345.999.548 2.06.548 3.181 0 .143 0 .286-.02.428h-4.212Zm-4.904 9.035a1.118 1.118 0 0 0-.143-.184l4.782-8.381h4.457c-.387 4.058-3.297 7.403-7.143 8.422-.63.082-1.282.143-1.933.163l-.02-.02Zm-5.597-8.566 4.783 8.383a.444.444 0 0 0-.143.183 15.144 15.144 0 0 1-1.933-.163c-3.846-1-6.776-4.344-7.143-8.423h4.457l-.02.02Zm-4.497-.917c0-1.081.183-2.121.509-3.08.55.102 1.099.143 1.669.143h.122l1.933 3.385h-4.212c0-.142-.02-.285-.02-.428v-.02Zm.326-3.12a9.83 9.83 0 0 0-.509 3.12c0 .142 0 .285.02.428h-5.392l2.727-4.772a9.98 9.98 0 0 0 3.174 1.224h-.02Zm-.997-5.038 1.831 3.202c-.305.53-.57 1.08-.773 1.652a9.441 9.441 0 0 1-3.134-1.203l2.096-3.671-.02.02Zm10.093-10.91c-.285.346-.55.733-.794 1.121h-3.703l1.872-3.263a9.94 9.94 0 0 1 2.645 2.141h-.02Zm4.864 1.121h-3.806c-.244-.387-.529-.775-.814-1.122a9.524 9.524 0 0 1 2.707-2.223l1.913 3.365v-.02Zm3.764 12.991 1.832-3.202 2.035 3.57a9.299 9.299 0 0 1-3.114 1.182c-.203-.55-.447-1.06-.732-1.57l-.02.02Zm-.101.184c.264.448.488.917.65 1.407a9.7 9.7 0 0 1-1.546.143l.875-1.55h.02Zm-5.373.469 2.198-3.814c1.16.734 2.137 1.733 2.89 2.875l-1.14 2a9.551 9.551 0 0 1-3.948-1.061Zm-2.727 4.731 2.646-4.568c1.2.612 2.523 1 3.927 1.08l-1.994 3.488h-4.579Zm-.162.47h4.477l-4.477 7.871v-7.872Zm-.183 0v7.871l-4.477-7.872h4.476Zm-2.768-4.997 2.605 4.527H27.25l-1.933-3.406a9.744 9.744 0 0 0 3.907-1.121Zm-4.904-8.484h.02l2.483 4.282a9.655 9.655 0 0 0-2.89 2.856l-1.831-3.223 2.238-3.936-.02.02Zm-.387-.265-2.116 3.711-4.68-8.219 6.796 4.508Zm.081-.164-6.776-4.486h9.32l-2.564 4.486h.02Zm5.658.143v.02h-5.21l2.646-4.65h3.703a9.857 9.857 0 0 0-1.16 4.61l.02.02Zm10.012.02h-5.25a9.991 9.991 0 0 0-1.201-4.65h3.805l2.646 4.65Zm.447-.183-2.543-4.446h9.401l-6.858 4.446Zm.082.163 6.776-4.405-4.64 8.158-2.136-3.753Zm-.387.286 2.259 3.936-1.832 3.222a9.895 9.895 0 0 0-2.89-2.855l2.483-4.303h-.02Zm-5.494 3.018v-.04a.533.533 0 0 0-.285-.47c.203-.734.325-1.489.366-2.284h4.742l-2.219 3.834a9.67 9.67 0 0 0-2.604-1.04Zm-1.873 3.283a.492.492 0 0 0 .143-.367.502.502 0 0 0-.102-.306 9.41 9.41 0 0 0 1.18-2.12h.082a.54.54 0 0 0 .488-.327c.916.224 1.77.571 2.564 1.02l-2.197 3.834a9.492 9.492 0 0 1-2.178-1.734h.02Zm-2.645-3.1a.522.522 0 0 0 .488.306c.041 0 .082 0 .122-.02.326.755.733 1.468 1.201 2.1a.565.565 0 0 0-.102.327c0 .163.061.306.184.408a9.66 9.66 0 0 1-2.178 1.774l-2.238-3.895a9.06 9.06 0 0 1 2.523-1Zm.265-.713a.523.523 0 0 0-.306.49v.06c-.915.225-1.77.571-2.564 1.02l-2.218-3.834h4.701c.04.775.183 1.55.387 2.264Zm3.724-.061a.544.544 0 0 0-.53.407c-.386-.04-.793-.081-1.2-.081-.428 0-.835.02-1.242.081a.549.549 0 0 0-.529-.407h-.06a9.961 9.961 0 0 1-.387-2.223h4.375c-.04.775-.163 1.509-.346 2.223h-.081Zm-1.405 3.059a.562.562 0 0 0-.325-.102.5.5 0 0 0-.305.102 10.813 10.813 0 0 1-1.18-2.06.49.49 0 0 0 .243-.408 8.186 8.186 0 0 1 1.222-.082c.407 0 .793.02 1.18.082.02.183.122.347.285.449a10.484 10.484 0 0 1-1.14 2.039l.02-.02Zm-.325 7.015-2.442-4.242a9.613 9.613 0 0 0 2.238-1.815.73.73 0 0 0 .224.04.54.54 0 0 0 .244-.06 9.448 9.448 0 0 0 2.239 1.774l-2.483 4.303h-.02ZM31.3 22.948c.223-.347.447-.673.712-.98.264.307.508.633.712.98H31.3Zm1.709.469a9.425 9.425 0 0 1 1.22 4.65h-4.395v-.02c0-1.673.428-3.244 1.18-4.61h1.995v-.02Zm-8.364 14.357h-.02c-.55 0-1.079-.04-1.608-.143.183-.53.428-1.02.692-1.509l.936 1.652Zm-.65-2.1a9.49 9.49 0 0 1 2.889-2.876l2.238 3.875a9.5 9.5 0 0 1-3.927 1.101l-1.18-2.08-.02-.02Zm25.07-7.628c0 3.345-1.71 6.282-4.294 8.015l-2.157-3.793 4.986-8.75a.41.41 0 0 0 .223.062h.02c.306.55.57 1.101.815 1.672.264.877.407 1.815.407 2.794ZM46.46 21.46c.305.408.61.836.875 1.285a.345.345 0 0 0-.061.204h-9.992l-2.035-3.57a9.604 9.604 0 0 1 4.192-.978c2.768 0 5.25 1.183 7.021 3.059Zm-11.721-2.02a10.06 10.06 0 0 0-2.747 2.244 10.183 10.183 0 0 0-2.666-2.162l2.727-4.792 2.686 4.69v.02Zm-10.114-.937a9.59 9.59 0 0 1 4.192.958l-1.994 3.488H16.81a.33.33 0 0 0-.061-.184c.224-.367.468-.714.712-1.06a9.598 9.598 0 0 1 7.143-3.182l.02-.02Zm-9.198 6.873c.264-.633.55-1.224.875-1.816a.41.41 0 0 0 .224-.06l4.985 8.769-2.218 3.895a9.618 9.618 0 0 1-4.273-8.015c0-.958.142-1.897.407-2.773Zm32.437 15.662c-.04 0-.081-.02-.122-.02-.04 0-.081 0-.122.02l-2.747-4.813a9.795 9.795 0 0 0 4.375-8.178c0-.53-.04-1.06-.122-1.57.63 1.835.977 3.793.977 5.853 0 3.161-.814 6.139-2.239 8.728v-.02Zm2.727-8.728c0-3.202-.794-6.261-2.3-8.974a.55.55 0 0 0 .102-.306.548.548 0 0 0-.55-.55h-.06a18.285 18.285 0 0 0-2.605-3.284 18.355 18.355 0 0 0-12.596-5.425.522.522 0 0 0-.489-.306.522.522 0 0 0-.488.306 18.355 18.355 0 0 0-12.597 5.425c-.997 1-1.872 2.1-2.604 3.263h-.082a.548.548 0 0 0-.55.55c0 .123.042.245.123.327-1.506 2.712-2.3 5.772-2.3 8.974 0 3.201.814 6.28 2.32 8.993a.565.565 0 0 0-.101.327c0 .306.244.55.549.55h.081a18.824 18.824 0 0 0 2.585 3.243 18.355 18.355 0 0 0 12.596 5.425.522.522 0 0 0 .489.306.522.522 0 0 0 .488-.306 18.355 18.355 0 0 0 12.596-5.425 17.79 17.79 0 0 0 2.625-3.324.554.554 0 0 0 .51-.551.735.735 0 0 0-.041-.224 18.443 18.443 0 0 0 2.34-9.035l-.041.02Z" fill="#533519"/></svg>