<svg xmlns="http://www.w3.org/2000/svg" fill="none" viewBox="0.37 0.35 48.26 68.29"><path fill-rule="evenodd" clip-rule="evenodd" d="M22.375.506a9.437 9.437 0 0 0-3.969 2.59c-1.071 1.17-1.266 1.273-2.538 1.33-3.927.174-7.084 3.48-7.084 7.416 0 2.784 1.328 5.108 3.617 6.33.655.35 1.259.88 1.342 1.18.084.298.229 1.894.322 3.546l.17 3.003-1.167.004c-1.48.005-2.32.434-3.083 1.575-.757 1.13-.773 2.44-.049 3.947.606 1.26 2.31 2.483 3.46 2.483.608 0 .671.132.932 1.954.332 2.318 1.322 4.446 2.76 5.932 1.03 1.063 1.044 1.107 1.044 3.102v2.024l-5.238 1.948C3.75 52.27 3.496 52.378 2.4 53.373.513 55.085.376 55.686.37 62.223c-.004 4.126.084 5.844.312 6.073.462.465 47.17.465 47.632 0 .227-.229.318-1.941.318-6.015 0-6.301-.126-6.95-1.67-8.571-1.145-1.202-1.681-1.448-9.402-4.313l-6.697-2.485v-1.99c0-1.974.01-2 1.16-3.289 1.518-1.699 2.298-3.406 2.643-5.787.261-1.802.326-1.936.934-1.936 1.148 0 2.854-1.224 3.46-2.483.724-1.506.707-2.817-.05-3.947-.763-1.14-1.603-1.57-3.082-1.575l-1.168-.004.17-3.003c.093-1.652.238-3.248.322-3.547.083-.298.688-.829 1.343-1.178 2.289-1.223 3.617-3.547 3.617-6.33 0-3.937-3.158-7.243-7.085-7.418-1.272-.056-1.466-.158-2.54-1.33C28.956 1.312 27.209.476 24.896.37c-1.021-.047-2.155.014-2.52.135Zm5.21 2.694c1.825 1.054 2.482 2.162 2.482 4.191 0 1.635.292 2.225 1.104 2.225.631 0 1.017-.805 1.017-2.118 0-1.048.03-1.086.862-1.08 1.134.008 2.807.805 3.699 1.763 2.672 2.868 1.645 7.209-2.075 8.774-1.035.435-1.286.964-1.55 3.273l-.192 1.669H16.063l-.192-1.669c-.265-2.309-.516-2.838-1.55-3.273-3.721-1.565-4.748-5.906-2.076-8.774.892-.958 2.565-1.755 3.7-1.763.831-.006.861.032.861 1.08 0 1.313.386 2.118 1.017 2.118.812 0 1.105-.59 1.105-2.225 0-2.029.656-3.137 2.481-4.19 1.127-.651 1.664-.788 3.088-.788 1.424 0 1.961.137 3.088.787Zm5.134 21.633v1.068H16.276v-2.135H32.719v1.067Zm-18.565 5.073c0 1.313-.107 2.136-.278 2.136-.73 0-1.922-.925-2.268-1.76-.585-1.41.195-2.486 1.817-2.504l.73-.008v2.136Zm18.515 2.47c-.076 4.24-.134 4.709-.725 5.919a8.687 8.687 0 0 1-3.887 3.912c-1.843.913-5.248.928-7.06.03-1.588-.788-3.193-2.403-3.975-4.003-.557-1.137-.621-1.682-.697-5.859l-.084-4.605h16.512l-.084 4.605Zm4.04-4.333c.882.476 1.105 1.211.678 2.24-.346.834-1.539 1.759-2.268 1.759-.172 0-.279-.823-.279-2.136 0-2.115.007-2.136.68-2.136.375 0 .91.123 1.188.273ZM24.496 44.947c1.491 0 2.591-.146 3.249-.432l.995-.432v2.903l-2.122 1.074-2.122 1.074-2.122-1.074-2.121-1.074v-2.903l.994.432c.658.286 1.758.432 3.25.432Zm-3.147 5.8-.83.509V66.48H8.87l-.076-2.47-.077-2.469H7.126l-.076 2.47-.076 2.47H2.22v-4.616c0-4.258.046-4.708.596-5.8.329-.653.964-1.398 1.413-1.657.449-.259 3.97-1.653 7.824-3.097l7.007-2.627 1.56.777 1.56.777-.83.508Zm23.41 3.668c1.649.97 1.873 1.787 1.97 7.194l.087 4.872H42.02l-.076-2.47-.077-2.469H40.277l-.076 2.47-.076 2.47h-17.75V52.455l3.753-1.883 3.752-1.883 7.039 2.627c3.871 1.444 7.4 2.839 7.841 3.098Zm-20.196 2.997c-.674.273-.788 1.102-.219 1.578.208.173.894.278 1.525.232.986-.07 1.16-.174 1.238-.735.158-1.123-1.106-1.657-2.544-1.075Zm0 5.34c-.674.272-.788 1.101-.219 1.577.208.174.894.279 1.525.233.986-.071 1.16-.174 1.238-.736.158-1.123-1.106-1.656-2.544-1.074Z" fill="#9C8364"/></svg>