<?xml version="1.0" standalone="no"?>
<!DOCTYPE svg PUBLIC "-//W3C//DTD SVG 20010904//EN"
 "http://www.w3.org/TR/2001/REC-SVG-20010904/DTD/svg10.dtd">
<svg version="1.0" xmlns="http://www.w3.org/2000/svg"
 width="532.000000pt" height="532.000000pt" viewBox="0 0 532.000000 532.000000"
 preserveAspectRatio="xMidYMid meet">
<metadata>
Created by potrace 1.14, written by Peter Selinger 2001-2017
</metadata>
<g transform="translate(0.000000,532.000000) scale(0.100000,-0.100000)"
fill="#000000" stroke="none">
<path d="M2602 5302 c-15 -15 -41 -20 -123 -26 -530 -34 -1044 -235 -1463
-570 -190 -152 -406 -385 -534 -578 -32 -48 -52 -69 -72 -73 -49 -11 -83 -73
-62 -111 7 -13 -7 -51 -59 -158 -107 -223 -176 -440 -220 -697 -27 -155 -37
-531 -20 -702 32 -305 126 -628 264 -903 34 -69 43 -97 39 -122 -6 -45 14 -79
55 -94 26 -9 49 -34 90 -93 94 -135 214 -274 349 -405 413 -401 934 -648 1513
-715 69 -8 149 -15 177 -15 38 0 55 -5 69 -20 12 -13 31 -20 55 -20 24 0 43 7
55 20 14 15 31 20 69 20 28 0 108 7 177 15 433 50 842 205 1198 452 248 173
500 427 666 673 32 47 70 93 86 102 33 20 49 47 49 82 0 14 27 81 59 148 79
165 126 287 167 437 68 248 94 433 94 671 0 434 -80 800 -256 1169 -55 115
-63 139 -58 172 5 32 2 42 -19 63 -15 14 -34 26 -44 26 -12 0 -43 35 -90 103
-454 656 -1192 1076 -1979 1124 -83 5 -107 10 -120 25 -23 24 -88 24 -112 0z
m-8 -111 c9 -14 -380 -686 -395 -684 -8 1 -56 18 -108 38 -170 66 -250 79
-476 80 -214 0 -283 -9 -442 -61 -99 -32 -241 -100 -326 -157 l-66 -45 26 34
c59 77 288 270 453 381 343 230 780 380 1200 412 58 5 110 9 117 10 6 0 14 -3
17 -8z m421 -17 c437 -61 870 -246 1218 -523 92 -73 229 -198 258 -235 18 -23
9 -19 -51 20 -363 234 -846 277 -1255 110 l-85 -34 -24 41 c-235 405 -356 623
-351 635 6 16 104 11 290 -14z m-176 -370 c100 -174 181 -319 181 -322 0 -4
-25 -22 -54 -40 -87 -52 -166 -115 -246 -196 l-75 -76 -65 64 c-81 79 -164
145 -241 192 -33 21 -59 43 -57 50 5 21 362 644 369 644 4 0 88 -142 188 -316z
m1121 -214 c243 -50 471 -165 653 -330 71 -65 187 -221 187 -252 0 -17 -29
-18 -704 -18 l-703 0 -137 239 c-75 131 -136 243 -136 249 0 29 271 112 425
131 111 14 297 5 415 -19z m-2170 0 c108 -17 200 -41 298 -78 72 -27 92 -39
89 -51 -3 -9 -63 -117 -135 -241 l-130 -225 -703 -3 c-387 -1 -707 2 -711 6
-11 11 80 143 140 205 133 137 388 288 577 342 177 50 419 69 575 45z m1371
-347 c61 -109 121 -213 131 -230 l20 -33 -260 0 -261 0 -59 79 -59 79 56 58
c31 33 81 80 111 105 54 45 188 138 202 139 3 0 57 -89 119 -197z m-739 81
c46 -34 110 -89 142 -122 l59 -61 -54 -80 -54 -80 -252 -1 c-139 0 -253 3
-253 6 0 6 101 186 212 377 l39 68 39 -22 c22 -13 77 -51 122 -85z m269 -269
c23 -31 39 -58 37 -61 -3 -3 -42 -4 -87 -2 l-82 3 41 58 c23 31 43 57 45 57 2
0 23 -25 46 -55z m-831 -149 c0 -6 -341 -600 -348 -607 -4 -3 -216 133 -472
302 l-465 309 643 0 c353 0 642 -2 642 -4z m600 -1 c0 -2 -15 -39 -34 -82 -70
-161 -116 -356 -116 -495 l0 -68 -361 0 c-218 0 -359 4 -357 9 2 5 84 152 183
325 l180 316 253 0 c138 0 252 -2 252 -5z m368 -82 c73 -160 122 -359 122
-500 l0 -63 -306 0 -306 0 7 78 c16 188 63 368 131 505 l34 67 139 0 138 0 41
-87z m707 -230 c99 -174 182 -320 183 -325 2 -4 -160 -7 -360 -6 l-363 3 -8
103 c-10 131 -53 301 -110 436 l-45 106 262 0 261 -1 180 -316z m1200 308
c-19 -17 -927 -601 -935 -601 -8 0 -350 590 -350 604 0 3 291 6 647 6 375 0
643 -4 638 -9z m-3932 -620 c191 -335 347 -612 347 -615 0 -13 -303 -536 -311
-536 -17 0 -158 121 -229 197 -169 179 -283 401 -337 653 -14 66 -18 128 -18
275 1 165 4 203 24 285 29 116 136 350 161 350 11 0 124 -188 363 -609z m4129
509 c94 -187 123 -331 114 -575 -9 -275 -73 -476 -224 -705 -79 -120 -266
-309 -359 -363 -8 -5 -61 79 -159 250 -80 142 -147 263 -147 268 0 6 156 284
347 618 260 454 352 607 364 605 10 -2 38 -45 64 -98z m-3902 -225 c253 -167
460 -307 460 -311 0 -6 -252 -452 -276 -487 -10 -16 -53 53 -332 542 -176 309
-319 561 -317 561 3 0 211 -137 465 -305z m3398 -263 c-172 -303 -315 -551
-318 -551 -7 -1 -290 493 -290 505 0 9 913 604 918 599 2 -1 -138 -251 -310
-553z m717 -127 c41 -204 49 -291 49 -520 0 -404 -74 -737 -241 -1087 -57
-118 -68 -136 -84 -129 -12 4 -95 139 -208 336 l-188 329 86 66 c254 197 433
486 502 810 18 83 23 140 23 268 l1 163 18 -58 c9 -32 28 -112 42 -178z
m-4929 57 c1 -207 42 -392 129 -579 82 -177 251 -386 410 -509 41 -31 73 -59
71 -63 -2 -3 -88 -153 -191 -333 -102 -181 -191 -328 -196 -328 -14 0 -129
244 -177 375 -167 458 -194 979 -76 1463 15 61 27 112 28 112 1 0 1 -62 2
-138z m1519 -322 c91 -156 165 -287 165 -290 0 -3 -24 -21 -52 -40 -73 -49
-228 -199 -290 -281 -46 -60 -55 -67 -65 -53 -6 9 -64 107 -128 219 l-116 204
152 266 c84 146 156 264 160 263 5 -2 83 -131 174 -288z m2174 26 c83 -144
151 -267 151 -271 0 -12 -244 -435 -251 -435 -3 0 -19 19 -34 42 -43 64 -201
224 -287 288 l-77 58 155 268 c163 283 182 314 188 314 2 0 72 -119 155 -264z
m-959 216 c0 -44 -28 -216 -41 -249 -5 -13 -17 -23 -27 -23 -10 0 -28 -10 -40
-23 -21 -22 -27 -23 -190 -22 -159 1 -169 2 -190 23 -12 12 -31 22 -42 22 -14
0 -22 11 -31 43 -17 65 -38 188 -39 230 l0 37 300 0 300 0 0 -38z m-635 -19
c3 -27 15 -93 25 -148 l19 -100 -22 -46 c-21 -43 -26 -46 -84 -62 -34 -9 -113
-39 -175 -66 -61 -28 -113 -49 -114 -48 -7 9 -294 508 -294 512 0 3 144 5 319
5 l320 0 6 -47z m1325 43 c0 -3 -287 -502 -296 -514 -1 -2 -41 15 -88 38 -48
22 -129 55 -181 72 -52 17 -95 37 -95 43 0 7 -9 23 -19 36 -18 24 -18 27 -1
107 10 45 21 114 25 152 l7 70 324 0 c178 0 324 -2 324 -4z m-848 -384 c9 -4
26 -20 39 -35 l22 -29 -22 -46 c-12 -26 -45 -86 -73 -133 l-51 -86 -52 0 -53
0 -60 101 c-80 135 -95 171 -76 187 8 6 14 17 14 25 0 7 10 15 23 17 36 7 271
6 289 -1z m-435 -52 c14 -11 34 -20 43 -20 13 0 30 -23 55 -74 20 -41 56 -105
81 -142 37 -56 43 -73 38 -100 -3 -18 -1 -42 7 -55 11 -22 7 -28 -63 -94 -73
-69 -214 -173 -222 -164 -7 6 -297 511 -303 525 -6 17 110 75 225 114 104 35
107 36 139 10z m730 -11 c48 -17 120 -48 159 -68 l72 -36 -152 -262 c-83 -145
-154 -263 -158 -263 -15 0 -158 103 -218 158 l-65 59 2 60 c1 50 7 68 38 114
20 29 55 93 78 141 27 57 48 87 58 88 9 0 27 9 40 20 32 26 43 25 146 -11z
m-1758 -362 c66 -117 121 -216 121 -220 0 -4 -20 -49 -44 -100 -24 -51 -46
-100 -49 -110 -8 -22 -42 -17 -168 24 -76 24 -269 113 -269 123 0 6 281 496
285 496 1 0 57 -96 124 -213z m751 -62 l150 -260 -57 -27 c-127 -60 -348 -118
-448 -118 l-43 0 -81 141 c-45 78 -81 144 -81 147 0 3 25 38 55 77 99 130 325
329 347 307 4 -4 75 -124 158 -267z m1427 193 c75 -60 195 -186 246 -259 l38
-55 -78 -137 c-90 -157 -72 -148 -234 -121 -167 29 -396 112 -385 141 6 14
254 446 283 491 14 23 15 23 41 6 15 -9 55 -39 89 -66z m743 -155 c74 -130
136 -239 138 -243 8 -20 -227 -121 -347 -149 l-75 -18 -53 108 -52 109 122
214 c67 119 124 215 127 216 3 0 66 -107 140 -237z m-1329 -229 c41 -27 75
-49 77 -50 3 -2 -326 -574 -338 -587 -4 -4 -83 124 -175 284 -154 267 -167
293 -151 303 46 27 177 127 231 178 87 81 101 80 201 -9 45 -39 115 -93 155
-119z m974 -121 c15 -35 25 -66 23 -68 -8 -8 -188 -18 -188 -11 0 4 23 50 52
101 l52 94 17 -26 c10 -14 29 -54 44 -90z m-2360 6 c31 -56 55 -102 53 -103
-5 -4 -200 12 -205 17 -6 7 78 187 88 187 4 0 33 -45 64 -101z m3074 -283 c99
-175 181 -320 181 -322 0 -2 -166 -4 -370 -4 l-370 0 0 78 c0 92 -22 240 -50
339 -25 90 -25 93 1 93 37 0 261 80 334 119 50 27 73 34 81 27 6 -6 93 -154
193 -330z m-3444 215 c50 -17 109 -35 131 -41 l42 -10 -18 -58 c-28 -91 -50
-238 -50 -339 l0 -93 -374 0 -375 0 176 308 c96 169 181 317 189 329 l14 22
88 -44 c48 -24 128 -57 177 -74z m2023 39 c96 -39 262 -81 375 -95 l48 -6 -18
-32 c-11 -18 -72 -125 -138 -239 l-118 -208 -318 0 -318 0 95 163 c51 89 133
231 181 314 49 84 93 151 98 149 6 -2 56 -23 113 -46z m-783 -222 c83 -144
162 -283 178 -310 l27 -48 -317 0 -318 0 -132 233 -133 232 28 6 c15 3 63 12
107 19 86 13 259 66 340 105 28 13 55 24 60 24 6 0 78 -117 160 -261z m1555
65 c30 -102 50 -235 50 -334 l0 -89 -289 0 -289 0 136 240 136 239 80 4 c45 1
98 4 118 5 l37 2 21 -67z m-2405 41 l70 -6 125 -220 c69 -120 127 -223 128
-229 2 -5 -109 -9 -281 -9 -277 0 -286 1 -292 20 -14 43 17 289 52 408 l15 54
56 -6 c32 -3 89 -8 127 -12z m-272 -639 c51 -288 181 -539 387 -746 110 -111
184 -168 316 -244 90 -52 77 -51 -106 7 -288 93 -551 231 -790 416 -116 90
-316 287 -411 404 -73 91 -179 240 -179 253 0 3 172 5 383 5 l383 0 17 -95z
m969 -465 c389 -680 355 -617 342 -630 -19 -19 -258 8 -356 40 -197 66 -367
170 -517 315 -228 221 -345 454 -405 803 l-6 32 312 -2 312 -3 318 -555z m388
18 c0 -298 -2 -539 -4 -537 -2 2 -133 231 -291 509 -158 278 -296 520 -307
538 l-20 32 311 0 311 0 0 -542z m647 535 c-3 -5 -141 -246 -307 -538 -166
-292 -304 -532 -306 -534 -2 -2 -4 239 -4 537 l0 542 311 0 c170 0 308 -3 306
-7z m719 -15 c-3 -13 -10 -54 -17 -93 -18 -107 -73 -267 -130 -375 -133 -254
-368 -481 -620 -599 -141 -66 -222 -89 -366 -102 -102 -9 -136 -9 -147 0 -12
10 40 106 322 601 l337 590 313 0 312 0 -4 -22z m804 16 c0 -10 -78 -122 -149
-214 -90 -117 -285 -316 -406 -413 -255 -206 -557 -366 -860 -457 -148 -45
-155 -44 -60 10 124 70 217 144 328 259 194 203 318 447 364 720 l18 101 382
0 c211 0 383 -3 383 -6z"/>
</g>
</svg>
