<svg xmlns="http://www.w3.org/2000/svg" fill="none" viewBox="0.56 0.3 30 30"><g clip-path="url(#a)"><rect x=".563" y=".302" width="30" height="30" rx="4" fill="url(#b)"/><path d="M12.439 15.302a3.125 3.125 0 1 1 6.25-.001 3.125 3.125 0 0 1-6.25 0Zm-1.69 0a4.814 4.814 0 1 0 9.628 0 4.814 4.814 0 0 0-9.627 0Zm8.694-5.005a1.125 1.125 0 1 0 1.125-1.125 1.126 1.126 0 0 0-1.125 1.125Zm-7.667 12.636c-.914-.042-1.41-.194-1.741-.323a2.914 2.914 0 0 1-1.078-.701 2.892 2.892 0 0 1-.702-1.078c-.128-.33-.28-.826-.322-1.74-.046-.989-.055-1.286-.055-3.79 0-2.503.01-2.799.055-3.788.042-.914.195-1.41.322-1.74.17-.438.374-.75.702-1.08a2.89 2.89 0 0 1 1.078-.7c.33-.13.827-.281 1.741-.323.988-.045 1.285-.054 3.787-.054 2.503 0 2.8.01 3.79.054.913.042 1.41.195 1.74.323.438.17.75.373 1.078.7.329.329.531.642.702 1.08.128.33.28.826.322 1.74.046.99.055 1.285.055 3.789 0 2.503-.01 2.8-.055 3.788-.041.915-.194 1.411-.322 1.741-.17.438-.374.75-.702 1.078-.328.328-.64.53-1.078.701-.33.129-.827.281-1.74.323-.99.045-1.286.054-3.79.054-2.503 0-2.8-.009-3.787-.054Zm-.078-16.95c-.998.046-1.68.204-2.275.436-.617.24-1.14.56-1.66 1.081A4.58 4.58 0 0 0 6.68 9.161c-.232.596-.39 1.278-.436 2.276-.046 1-.057 1.319-.057 3.865 0 2.546.011 2.865.057 3.865.046.998.204 1.68.436 2.275.239.617.56 1.14 1.081 1.661a4.61 4.61 0 0 0 1.66 1.081c.598.232 1.278.39 2.276.436 1 .045 1.32.057 3.865.057 2.546 0 2.866-.01 3.866-.057.998-.046 1.68-.204 2.275-.436a4.611 4.611 0 0 0 1.66-1.08 4.593 4.593 0 0 0 1.082-1.662c.232-.596.391-1.277.436-2.275.045-1 .056-1.32.056-3.865 0-2.546-.01-2.866-.056-3.865-.046-.998-.204-1.68-.436-2.276a4.61 4.61 0 0 0-1.081-1.66 4.587 4.587 0 0 0-1.66-1.082c-.597-.232-1.278-.39-2.276-.435-1-.046-1.319-.057-3.865-.057-2.546 0-2.866.01-3.866.057Z" fill="#fff"/></g><defs><linearGradient id="b" x1="2.578" y1="28.347" x2="30.375" y2="4.285" gradientUnits="userSpaceOnUse"><stop stop-color="#FD5"/><stop offset=".5" stop-color="#FF543E"/><stop offset="1" stop-color="#C837AB"/></linearGradient><clipPath id="a"><path fill="#fff" transform="translate(.563 .302)" d="M0 0h30v30H0z"/></clipPath></defs></svg>