<svg xmlns="http://www.w3.org/2000/svg" fill="none" viewBox="0.56 0.3 30 30"><rect x=".563" y=".302" width="30" height="30" rx="3" fill="#3C589A"/><path d="m18.404 9.622-1.474-.003c-1.655 0-2.725 1.098-2.725 2.797v1.29h-1.482a.232.232 0 0 0-.232.232v1.868c0 .128.104.232.232.232h1.482v4.715c0 .128.103.232.231.232h1.934a.232.232 0 0 0 .232-.232v-4.715h1.732a.232.232 0 0 0 .232-.232v-1.868a.232.232 0 0 0-.231-.232h-1.733v-1.093c0-.526.125-.793.81-.793h.992a.232.232 0 0 0 .232-.232V9.853a.232.232 0 0 0-.232-.231Z" fill="#fff"/></svg>