<svg xmlns="http://www.w3.org/2000/svg" fill="none" viewBox="0.56 0.3 30 30"><rect x=".563" y=".302" width="30" height="30" rx="3" fill="#BA0D0D"/><path fill-rule="evenodd" clip-rule="evenodd" d="M12.88 4.568c-1.522.318-3.043.9-3.472 1.329-.266.266-.35.58-.221.822a406.39 406.39 0 0 0 2.348 3.807c2.428 3.91 2.697 4.261 3.27 4.261.608 0 .841-.409.84-1.474 0-.647-.35-6.379-.476-7.79-.077-.872-.246-1.06-.98-1.091-.299-.013-.888.048-1.31.136Zm7.128 6.836c-.95 1.206-2.84 3.918-2.884 4.141-.094.471.437 1.115.92 1.115.242 0 3.46-.78 4.624-1.12.689-.201.855-.323.925-.677.107-.532-.61-1.971-1.548-3.11-.533-.648-.878-.88-1.306-.881-.281 0-.353.052-.731.532ZM8.014 14.657c-.413.29-.682 1.772-.603 3.325.052 1.029.26 1.606.628 1.746.236.09 1.232-.192 4.452-1.257 1.134-.375 1.33-.552 1.316-1.186-.014-.674-.07-.705-4.234-2.382-.99-.398-1.277-.443-1.559-.246Zm9.778 4.008c-.246.172-.444.56-.444.87 0 .164.412.92 1.265 2.323 1.354 2.227 1.727 2.718 2.07 2.718.491 0 1.514-.955 2.366-2.21.816-1.201.893-1.845.262-2.171-.464-.24-4.795-1.663-5.062-1.663a.933.933 0 0 0-.457.133Zm-3.47.926c-.167.07-.768.72-1.668 1.803-1.894 2.277-2.03 2.463-2.03 2.776 0 .53.921 1.14 2.55 1.685 1.275.428 2.015.425 2.286-.01.163-.26.24-5.49.085-5.772-.245-.447-.797-.665-1.224-.482Z" fill="#fff"/></svg>