<svg xmlns="http://www.w3.org/2000/svg" fill="none" viewBox="0.7 0.89 52.07 21.57">
<path fill-rule="evenodd" clip-rule="evenodd" d="M31.581 9.1876L31.6576 10.394C31.6672 10.4611 31.6672 10.5089 31.6672 10.6047C31.6672 10.7004 31.6863 10.71 31.6863 10.8057C31.6863 11.0738 31.7342 11.3515 31.7342 11.6291L31.7629 12.0217C31.782 12.1653 31.782 12.2993 31.782 12.443C31.782 12.5579 31.8108 12.7206 31.8203 12.8355L31.8491 13.4292C31.8491 13.5249 31.8682 13.5441 31.8682 13.6302L31.9161 14.4536C31.9161 14.5494 31.9352 14.5589 31.9352 14.6547C31.9352 14.894 31.9639 15.009 31.9639 15.2674L32.0022 15.6791L30.298 15.6791L30.6139 14.0514C30.6618 13.7738 30.7289 13.5152 30.7767 13.2376C30.7958 13.1035 30.8246 12.9791 30.8533 12.8354C30.882 12.6918 30.9107 12.5674 30.9299 12.4237L31.2459 10.7961C31.3033 10.528 31.3416 10.2504 31.4086 9.98224L31.5236 9.37901C31.5331 9.34071 31.5331 9.33116 31.5427 9.27371L31.5714 9.16841L31.581 9.18751L31.581 9.1876ZM40.8109 12.0408H39.1544C39.0874 12.0408 39.1161 11.9834 39.1161 11.9068L39.3076 8.87165C39.3076 8.7759 39.3267 8.76635 39.3267 8.68015L39.3842 7.66527C39.3937 7.59822 39.3937 7.54082 39.3937 7.46417C39.3937 7.29187 39.4416 6.86098 39.4416 6.65993C39.4416 6.56423 39.4607 6.54503 39.4607 6.45888L39.4799 6.04719C39.4894 5.93229 39.5086 5.75994 39.5086 5.63549H41.2799C41.7682 5.63549 41.6246 5.99933 41.6246 6.38233L41.4044 9.80998C41.4044 9.88658 41.4139 9.95358 41.4044 10.0302C41.3565 10.4611 41.3565 11.0164 41.3086 11.4377C41.2799 11.6962 41.3852 12.0313 40.8108 12.0313V12.0409L40.8109 12.0408ZM29.2257 20.9642C29.264 20.7823 29.3023 20.5812 29.3406 20.3993C29.3789 20.1983 29.4172 20.0164 29.4555 19.8153C29.4938 19.6238 29.5321 19.4323 29.5704 19.2313C29.6087 19.0398 29.647 18.8387 29.6949 18.6568L32.2225 18.6568C32.2225 18.8195 32.2704 19.0781 32.2704 19.2408C32.28 19.5281 32.3278 19.8248 32.3374 20.1121C32.347 20.3036 32.3853 20.5047 32.3853 20.7057C32.3853 20.7919 32.3757 20.9642 32.4523 20.9642H38.4938C38.5704 20.9642 38.5417 20.8302 38.5609 20.6387C38.58 20.3993 38.58 20.1408 38.6087 19.9015C38.6183 19.844 38.6087 19.777 38.6087 19.7196L38.6758 18.7908C38.6949 18.6185 38.6854 18.3983 38.7141 18.2259C38.7428 18.044 38.7332 17.8525 38.7524 17.661C38.762 17.6036 38.7524 17.5461 38.762 17.4791L38.8577 15.995C38.8577 15.9184 38.8577 15.8706 38.8673 15.794C38.896 15.5833 38.9152 15.2483 38.9152 15.0376H39.3556C39.4226 15.0376 39.413 15.1238 39.4322 15.1812L39.9205 17.2301C39.9779 17.4695 40.0449 17.7472 40.1024 17.9865C40.2939 18.7333 40.4758 19.4706 40.6385 20.227L40.7726 20.7919C40.7917 20.8589 40.7822 20.9546 40.8492 20.9546H44.6503C44.6503 20.8684 44.5832 20.677 44.5545 20.5812L44.162 19.1163C44.0088 18.494 43.8173 17.8812 43.6641 17.2589C43.5109 16.6461 43.3194 16.0238 43.1758 15.411C43.1471 15.2866 43.0992 15.1621 43.0705 15.0376C43.5397 15.0376 43.8939 14.9132 44.1524 14.7025C44.5833 14.3578 44.8513 13.8312 44.8418 13.2472L45.0524 9.89613C45.0715 9.79083 45.062 9.65679 45.0811 9.56104L45.1194 8.8812C45.1194 8.80461 45.129 8.7855 45.1385 8.72801C45.1481 8.66101 45.1385 8.61311 45.1481 8.54611C45.1769 8.38336 45.1672 8.21101 45.1769 8.04822L45.2247 7.37802C45.2343 7.21523 45.2343 7.02373 45.2535 6.86098L45.3109 5.84609H46.4502C46.4502 6.16204 46.4023 6.46844 46.4023 6.78438L46.3353 7.72267C46.3162 7.88542 46.3257 8.03862 46.3162 8.20137L46.2491 9.13966C46.2491 9.31201 46.2396 9.47476 46.2204 9.61836L45.9907 13.3907C45.9715 13.5248 45.9715 13.7258 45.9619 13.8599C45.9619 13.9461 45.9428 13.9748 45.9428 14.0801L45.6364 19.0589C45.6269 19.2025 45.5981 19.3748 45.5981 19.5185L45.5407 20.4664C45.5216 20.61 45.512 20.7823 45.512 20.945H49.2652C49.3418 20.945 49.3131 20.8397 49.3131 20.7535C49.3131 20.6004 49.3514 20.4472 49.3514 20.2749L49.428 19.0876C49.4472 18.9632 49.4568 18.7621 49.4568 18.6184C49.4568 18.5322 49.4759 18.494 49.4759 18.3791C49.4759 18.2642 49.495 18.2355 49.495 18.1397C49.495 18.0153 49.5046 17.7951 49.5237 17.6705C49.5524 17.5078 49.5333 17.345 49.5524 17.1823C49.562 17.0387 49.5812 16.8759 49.5812 16.7227L49.6195 16.244C49.6195 16.1387 49.6291 16.1004 49.6386 16.0238L49.6769 15.2865C49.696 15.0089 49.7343 14.6259 49.7439 14.3482L49.7918 13.3908C49.8014 13.2472 49.8301 13.0844 49.8301 12.9312C49.8301 12.7684 49.8588 12.6057 49.8684 12.4525C49.878 12.1174 49.9067 11.8302 49.9163 11.495L50.2514 6.29605C50.261 6.20985 50.261 6.14285 50.261 6.0471C50.261 5.96091 50.2801 5.92265 50.2801 5.80775H52.7695C52.7024 5.5301 52.6545 5.24286 52.5875 4.94606L52.329 3.65348C52.3003 3.50029 52.2716 3.36624 52.2428 3.21308C52.2141 3.07904 52.1854 2.92584 52.1566 2.79179C52.1279 2.63859 52.08 2.49495 52.08 2.3418H45.1863C45.1768 2.40884 45.1576 2.45674 45.1385 2.51414C45.0811 2.67689 45.0044 2.85884 44.9662 3.02159H44.9279C44.9087 2.95454 44.8417 2.90665 44.7938 2.85879C44.6885 2.75349 44.5641 2.68649 44.4396 2.61945C44.1236 2.42795 43.6257 2.3418 43.2044 2.3418H35.9852C35.9852 2.60034 35.9469 2.80139 35.9469 3.04074C35.9469 3.11738 35.9373 3.14608 35.9373 3.19393C35.9277 3.26098 35.9373 3.31839 35.9277 3.37588C35.9182 3.47158 35.9086 3.62482 35.899 3.72057C35.8894 3.77798 35.899 3.83547 35.899 3.89287L35.8416 4.77376C35.8129 4.9844 35.8033 5.55889 35.7842 5.82695L35.7555 6.34399C35.7555 6.52589 35.7171 6.67908 35.7171 6.85139L35.6118 8.42161C35.6023 8.70886 35.5544 9.00566 35.5639 9.2929C35.5639 9.58014 35.5256 9.87694 35.5161 10.1642L35.382 12.2323C35.382 12.644 35.315 13.0653 35.315 13.4769H35.2959C35.2959 13.1323 35.1714 12.4812 35.1427 12.0982L35.114 11.8684C35.1044 11.7727 35.1044 11.7248 35.0948 11.6387L34.7693 8.8908C34.6831 8.28757 34.6448 7.65567 34.5491 7.06203L34.4916 6.60248L34.0033 2.46629C33.9842 2.29394 33.965 2.35139 33.6012 2.35139L30.0012 2.35135L29.3501 5.04177C28.8427 7.06199 28.3735 9.09177 27.866 11.1216C27.8086 11.3418 27.7511 11.5716 27.7033 11.7918L26.6405 16.1674L26.5543 16.512L25.5681 20.562C25.5585 20.5908 25.4819 20.8971 25.4819 20.8971C25.4915 20.945 25.4819 20.9259 25.5393 20.9259H29.2256V20.9642L29.2257 20.9642Z" fill="white"/>
<path fill-rule="evenodd" clip-rule="evenodd" d="M1.31611 18.9823C1.32571 18.8962 1.34482 18.81 1.36401 18.7334L1.42142 18.4174C1.43101 18.3695 1.43101 18.3121 1.45016 18.2547C1.45972 18.2068 1.46927 18.1685 1.47887 18.1302C1.48846 18.044 1.50757 17.9579 1.51716 17.8622C1.52676 17.776 1.55546 17.6898 1.56506 17.6228C1.56506 17.5654 1.65125 17.0771 1.67036 17.0388C1.67036 16.9622 1.7853 16.2441 1.80441 16.2058C1.81401 16.0718 1.86182 15.9186 1.87141 15.7845C1.88101 15.6313 1.93846 15.4303 1.95761 15.2771C1.9672 15.1431 2.0055 14.9707 2.02465 14.8367C2.03425 14.7601 2.04376 14.7027 2.06295 14.6165C2.07255 14.559 2.0917 14.5015 2.0917 14.425C2.1204 14.3292 2.13 14.1473 2.1587 14.0707C2.16829 13.9271 2.20659 13.7834 2.22574 13.6398C2.2353 13.5824 2.24485 13.5441 2.25445 13.4771C2.26404 13.4292 2.25445 13.3909 2.28319 13.3717C2.28319 13.2473 2.33105 13.1228 2.33105 13.0175C2.35979 12.8547 2.39809 12.6824 2.41724 12.5196C2.43639 12.4047 2.45554 12.2994 2.47469 12.1845C2.48424 12.1462 2.4938 12.0601 2.50339 12.0218C2.51299 11.9643 2.52254 11.9452 2.52254 11.8877C2.5321 11.8016 2.55124 11.7154 2.57039 11.6292C2.57999 11.5622 2.60869 11.4569 2.60869 11.3995C2.62784 11.3037 2.64704 11.1984 2.65659 11.1122C2.66619 10.9207 2.74278 10.7292 2.74278 10.5282C2.76189 10.4803 2.79068 10.3175 2.79068 10.2696C2.80979 10.1739 2.82898 10.0686 2.83857 9.98238L2.92477 9.45579C2.93432 9.41749 2.93432 9.40789 2.93432 9.36959C2.93432 9.35044 2.93432 9.35044 2.94392 9.33129L2.95351 9.31214C2.95351 9.16854 3.00137 8.99619 3.02052 8.86215C3.02052 8.80474 3.06841 8.52705 3.08756 8.4983C3.08756 8.37385 3.12586 8.326 3.12586 8.21106C3.13546 8.16316 3.17376 7.99086 3.17376 7.93341C3.17376 7.86641 3.19286 7.83771 3.20246 7.77066L3.27906 7.36852C3.27906 7.24407 3.29821 7.18658 3.3174 7.07168C3.32695 7.03338 3.3557 6.85144 3.36525 6.80363C3.37485 6.71743 3.394 6.65998 3.40355 6.56428C3.41315 6.49723 3.48975 5.96104 3.51849 5.93234C3.51849 5.84614 3.52805 5.82704 3.5472 5.75044C3.55679 5.68339 3.59509 5.3483 3.62384 5.31955C3.62384 5.21425 3.64294 5.13765 3.66214 5.03231C3.68124 4.93656 3.68124 4.86956 3.70999 4.79296L3.81533 4.18976C3.81533 4.11312 3.90153 3.59613 3.92063 3.56742C3.92063 3.48123 3.99723 3.02168 4.02594 2.96423C4.02594 2.89719 4.07383 2.60039 4.09298 2.56205C4.09298 2.47589 4.12168 2.32274 4.14088 2.23654C4.14088 2.1791 4.26533 1.4706 4.27488 1.43226C4.27488 1.29826 4.32278 1.13546 4.34193 1.00141C4.34193 0.924816 4.35148 0.943966 4.36103 0.886475H25.1856L25.0898 1.51837C25.0707 1.61412 25.0994 1.55667 25.0515 1.59497L25.0611 1.64286C25.0324 1.78646 24.9558 2.4184 24.9079 2.48541C24.9175 2.5716 24.8313 3.14605 24.793 3.2035C24.8026 3.2992 24.7164 3.77798 24.6877 3.89284L24.6302 4.21838L24.4483 5.21416C24.4579 5.28117 24.3717 5.80776 24.343 5.85566C24.3526 5.99926 24.2951 6.2195 24.2664 6.37269L24.1802 6.8801C24.1706 6.89925 24.1706 6.89925 24.1706 6.91844L24.161 6.94714C24.1706 7.02374 24.1515 7.20568 24.1036 7.26309C24.1132 7.36839 24.0653 7.56948 24.0462 7.67479C24.0271 7.78968 23.9505 8.34498 23.9122 8.39283C23.9217 8.47903 23.8547 8.93858 23.8068 8.99607C23.8164 9.04392 23.7685 9.43647 23.7206 9.49392C23.7398 9.61837 23.6249 10.0876 23.6057 10.2599C23.577 10.3652 23.5674 10.4801 23.5483 10.5854L23.4813 10.9205C23.4909 10.9684 23.4334 11.4567 23.376 11.5332C23.3951 11.6099 23.3664 11.7918 23.3185 11.8492C23.3281 11.9354 23.2994 12.0311 23.2898 12.1269L23.1845 12.6535C23.1941 12.7205 23.1654 12.9407 23.1271 12.9886C23.1367 13.0843 23.0888 13.4194 23.0409 13.4864C23.0505 13.5822 23.0218 13.6875 23.0026 13.7833C22.993 13.8503 22.9739 14.0226 22.9356 14.0705C22.9451 14.128 22.9356 14.1759 22.926 14.2333C22.926 14.262 22.9164 14.2907 22.9069 14.3195C22.8973 14.3769 22.9069 14.3482 22.8781 14.3865C22.8877 14.4535 22.8781 14.4918 22.8685 14.5492C22.8685 14.5684 22.859 14.6067 22.859 14.6259C22.8494 14.6833 22.859 14.6546 22.8302 14.6929L22.7728 15.1429C22.7345 15.2578 22.8111 15.0471 22.7632 15.1716C22.7632 15.1716 22.7536 15.1907 22.7536 15.1812C22.7536 15.1812 22.7536 15.1908 22.7441 15.1908C22.7536 15.2482 22.7441 15.2961 22.7345 15.3535L22.6962 15.4971C22.7153 15.5738 22.6483 15.9759 22.61 16.0333C22.6196 16.1291 22.5526 16.5791 22.5047 16.6366C22.5143 16.7323 22.4664 17.0865 22.4185 17.144C22.4281 17.2206 22.4089 17.3929 22.3706 17.4504C22.3802 17.5365 22.3515 17.6418 22.3323 17.7376L22.2653 18.1589C22.2557 18.2259 22.2174 18.494 22.1887 18.5514C22.2078 18.6472 22.1696 18.7717 22.1504 18.877C22.1313 18.9727 22.1313 19.1068 22.0834 19.1738C22.0929 19.26 22.0642 19.3558 22.0546 19.4419C22.045 19.5185 22.0355 19.6334 21.9972 19.6812C22.0163 19.7962 21.9493 20.0355 21.9302 20.16C21.911 20.2844 21.9111 20.5142 21.844 20.6004C21.8536 20.6961 21.8057 21.0504 21.7578 21.1078C21.7674 21.194 21.6908 21.6727 21.6525 21.7206C21.6621 21.8354 21.5951 22.1514 21.5759 22.2854C21.5567 22.4291 21.5854 22.4482 21.4418 22.4578H3.44168V22.4482C2.86719 22.4482 2.29275 22.4482 1.72785 22.4578H0.703369C0.712923 22.3811 0.732072 22.295 0.751264 22.2088L0.827863 21.711C0.837417 21.6727 0.856566 21.5003 0.875758 21.4812C0.875758 21.4238 0.942761 20.9833 0.961953 20.9546C0.961953 20.8876 0.98106 20.7918 0.990656 20.7344C1.2013 19.5088 1.03855 20.5716 1.2875 18.9535L1.3162 18.9822L1.31611 18.9823ZM5.68206 20.6483H8.91826C9.9236 15.6983 11.264 7.80888 12.1545 2.62909L8.94705 2.62905C8.98535 3.76839 5.83534 19.7961 5.6917 20.6579L5.6821 20.6483H5.68206ZM13.7821 15.411C13.7534 15.4781 13.7438 15.6026 13.7342 15.6887C13.7246 15.7749 13.6863 15.8802 13.6863 15.976C13.6863 16.0334 13.6576 16.11 13.648 16.1675C13.6384 16.2345 13.6193 16.3207 13.6097 16.3972C13.5906 16.426 13.5427 16.7228 13.5427 16.7898C13.514 16.8281 13.4374 17.3164 13.4374 17.4025L13.3321 17.9387C13.3129 18.0823 13.265 18.1972 13.2842 18.3791C13.3129 18.6664 13.5618 18.8483 13.8682 18.8004C14.098 18.7621 14.0788 18.743 14.232 18.6568C14.2895 18.5611 14.5193 18.3695 14.5001 18.2164C14.5384 18.1589 14.6054 17.7185 14.615 17.6515C14.6437 17.527 14.7203 17.144 14.7108 17.0483L14.7203 17.0196C14.7203 17.01 14.7969 16.7898 14.7778 16.6557L14.8065 16.56C14.8161 16.5313 14.8161 16.493 14.8256 16.4547C14.8352 16.3876 14.8639 16.3111 14.8447 16.244C14.8543 16.2249 14.8543 16.244 14.8638 16.2057L14.883 16.1195C14.8925 16.0525 14.8925 16.0525 14.8925 15.9951C14.9404 15.9377 14.9596 15.6791 14.9787 15.5834C14.9979 15.4589 15.0649 15.1908 15.0553 15.0855L15.1224 14.7982C15.1415 14.6929 15.1703 14.5876 15.1607 14.4919C15.1894 14.4536 15.1894 14.3961 15.1798 14.3387C15.266 14.2046 15.1319 13.6876 15.0841 13.544C15.0362 13.41 14.7872 13.0078 14.7107 12.9695C14.6915 12.9217 14.4809 12.6344 14.433 12.6057C14.4139 12.5483 14.433 12.5961 14.3947 12.5483L14.1266 12.2132L14.0596 12.1079C13.9734 12.0025 13.5713 11.4759 13.533 11.4663C13.5139 11.3993 13.3511 11.2078 13.2937 11.1408C13.2458 11.0834 13.083 10.8535 13.0447 10.8344C13.0256 10.7961 12.7957 10.4706 12.7574 10.4514C12.7096 10.3365 12.6234 10.2312 12.5564 10.1163C12.5277 10.0684 12.4894 10.0014 12.4606 9.9344C12.4415 9.88655 12.4128 9.7908 12.3841 9.7525C12.3458 9.53226 12.3266 9.42696 12.3362 9.18761L12.4223 8.57486L12.566 7.77058C12.5947 7.63657 12.6713 7.29188 12.6522 7.17698C12.7 7.10993 12.7383 6.80358 12.7383 6.70779C12.7767 6.6599 12.8533 6.1716 12.8437 6.1046C12.9107 5.99926 12.9394 5.54926 12.9873 5.38651C13.0064 5.25251 13.083 4.95567 13.0735 4.84081C13.0926 4.8217 13.0831 4.84081 13.0926 4.80251L13.1309 4.63976C13.15 4.57272 13.1788 4.49612 13.1692 4.42911C13.1979 4.39081 13.1883 4.40996 13.2075 4.35247C13.2171 4.32377 13.2266 4.30462 13.2362 4.27587C13.2553 4.21847 13.2745 4.18017 13.2745 4.11312C13.3224 4.06523 13.3799 3.90248 13.4086 3.82588L13.5618 3.53863C13.6097 3.50989 13.6575 3.43329 13.6958 3.38544C13.7437 3.31839 13.782 3.28969 13.8394 3.24179C13.8873 3.2035 14.1554 3.02159 14.165 3.00245C14.2512 2.97374 14.3469 2.90674 14.4426 2.86844C14.5384 2.8301 14.6246 2.7918 14.7299 2.7631C14.9501 2.69609 15.1416 2.66739 15.3809 2.6482C16.0607 2.62909 16.7597 2.6482 17.449 2.6482C18.1097 2.6482 18.732 2.7056 19.0863 3.0886C19.1629 3.1652 19.3256 3.38544 19.3735 3.51949C19.4118 3.63438 19.4597 3.72054 19.4884 3.84503C19.5171 3.97903 19.5267 4.10353 19.5267 4.26628C19.5267 4.32373 19.5171 4.42907 19.5076 4.50563C19.498 4.58223 19.4789 4.67797 19.4789 4.76417C19.4693 4.85036 19.4406 4.95567 19.431 5.04182C19.4214 5.13757 19.4022 5.27161 19.3735 5.34821C19.3735 5.41521 19.3448 5.52056 19.3352 5.59716C19.3161 5.69286 19.2969 5.78865 19.2873 5.8748C19.2778 5.90351 19.2395 6.12375 19.2395 6.16205C19.2299 6.22909 19.2107 6.30565 19.1916 6.3918C19.1725 6.48755 19.1533 6.57375 19.1533 6.66945C19.1246 6.75565 19.115 6.87054 19.0958 6.97584C19.0767 7.1003 19.0576 7.19609 19.0384 7.31094C19.0384 7.37799 19.0001 7.5407 18.9905 7.59819C18.981 7.65564 18.981 7.67479 18.9714 7.74183C18.9618 7.78968 18.9427 7.84713 18.9427 7.91413C18.9331 7.98118 18.914 8.06733 18.8948 8.14393C18.8757 8.23012 18.8565 8.32583 18.8565 8.40243C18.8469 8.45988 18.8278 8.53648 18.8086 8.61307L16.2522 8.62267C16.2522 8.44077 16.3671 8.11523 16.3575 7.94284C16.4054 7.88543 16.4533 7.52155 16.4437 7.43544C16.4629 7.40669 16.4533 7.43544 16.4629 7.38754L16.5395 6.8801C16.5969 6.81305 16.6448 6.26735 16.6831 6.14286C16.7022 6.00881 16.7597 5.80776 16.7501 5.68327C16.7884 5.62586 16.7884 5.48222 16.8171 5.41521L16.8267 5.31947L16.8554 5.19501C16.9321 4.82162 16.7884 4.49607 16.3959 4.49607C16.0799 4.49607 15.7543 4.68757 15.6586 4.95567C15.6395 5.00356 15.6395 5.03226 15.6203 5.07056C15.6012 5.16631 15.5724 5.30036 15.5724 5.39611C15.5533 5.4823 15.5437 5.53971 15.5245 5.63546C15.5054 5.7312 15.4862 5.8078 15.4862 5.9131L15.448 6.05671L15.4192 6.22905C15.4001 6.3535 15.3714 6.4684 15.3618 6.58334C15.3331 6.60245 15.3427 6.65994 15.3331 6.70779C15.3235 6.7748 15.3139 6.79399 15.3043 6.85139C15.2948 6.93759 15.2565 7.06204 15.2565 7.14823C15.2373 7.22483 15.2277 7.29183 15.2086 7.38758C15.1895 7.48329 15.1703 7.55993 15.1703 7.66523C15.1416 7.70353 15.1033 7.98118 15.0937 8.07693C15.0841 8.14393 15.065 8.41202 15.0841 8.47907C15.1032 8.53648 15.065 8.49818 15.1128 8.52697C15.0649 8.66097 15.2373 8.99611 15.3139 9.13016C15.3618 9.20676 15.3043 9.15886 15.3809 9.1972C15.3713 9.24506 15.3713 9.20676 15.3809 9.24506C15.3809 9.2642 15.4 9.28335 15.4096 9.3025L15.8692 9.92485C15.9075 9.95355 15.8405 9.92485 15.9075 9.95355C15.9075 10.011 16.1373 10.2791 16.1851 10.3174L16.5298 10.7195C16.5298 10.7291 16.5107 10.7291 16.5585 10.7961L16.9894 11.3323L17.2288 11.6292C17.2958 11.7154 17.2671 11.6962 17.3245 11.7249C17.3341 11.7823 17.4681 11.9451 17.5064 12.0122C17.583 12.1271 17.65 12.2898 17.7075 12.3185C17.6884 12.376 17.6979 12.3377 17.7266 12.4047C17.7457 12.4334 17.7457 12.443 17.7649 12.4909L17.8893 12.8451C17.9277 12.9888 17.8989 12.9983 17.9468 13.0367C17.8989 13.1516 17.9277 13.3239 17.9277 13.4483C17.9181 13.525 17.9085 13.5441 17.9085 13.6399C17.8894 13.6686 17.8223 14.1377 17.8223 14.2143C17.7936 14.2431 17.8223 14.2048 17.8032 14.2527C17.8032 14.2622 17.7936 14.3197 17.7936 14.3197C17.7841 14.3867 17.7745 14.425 17.7745 14.4824C17.7554 14.5207 17.6883 14.9133 17.6883 14.9707C17.6692 15.0474 17.65 15.1622 17.6404 15.258C17.6309 15.3633 17.5925 15.459 17.5925 15.5835C17.5734 15.6026 17.5734 15.6505 17.5638 15.6888C17.5542 15.7462 17.5542 15.775 17.5447 15.8228C17.5256 15.9186 17.516 16.0239 17.4968 16.1101C17.4968 16.2058 17.4489 16.3399 17.4489 16.4548C17.4298 16.4835 17.401 16.675 17.401 16.7324C17.3819 16.8665 17.3436 17.0005 17.334 17.1441C17.3149 17.192 17.267 17.4792 17.267 17.5558C17.2383 17.5749 17.2383 17.6515 17.2383 17.6899C17.2287 17.7569 17.2191 17.7856 17.2095 17.8526C17.1904 17.9675 17.1616 18.092 17.1521 18.2069C17.133 18.2548 17.1138 18.3601 17.1042 18.4175C17.0851 18.4846 17.0563 18.5899 17.0468 18.6665L16.884 19.1261C16.7978 19.3367 16.6925 19.4611 16.6543 19.5569C16.6352 19.5665 16.5202 19.7292 16.4915 19.7675C16.4532 19.8154 16.4436 19.825 16.4053 19.8728L16.3 19.9878C16.2234 20.0931 15.9171 20.3133 15.7735 20.3707C15.6968 20.3995 15.6298 20.4186 15.5532 20.4665C15.467 20.4761 15.1319 20.5909 14.8256 20.6005L13.9734 20.6196C13.8106 20.6196 13.7053 20.6387 13.5617 20.6387L12.4511 20.6389C12.3458 20.6389 12.3266 20.6197 12.2309 20.6197C12.183 20.6197 12.049 20.591 11.9915 20.5814C11.9532 20.5719 11.9245 20.5719 11.8766 20.5623C11.8287 20.5527 11.8096 20.5336 11.7522 20.5336C11.4171 20.457 11.3213 20.3421 11.149 20.2176C11.1202 20.1985 11.1394 20.2081 11.1202 20.1985C11.0915 20.1506 11.1202 20.1889 11.0819 20.1411C11.0723 20.122 11.0628 20.122 11.0532 20.1028L10.7277 19.49C10.7181 19.4038 10.6894 19.3273 10.6798 19.2411C10.6702 19.1454 10.6894 19.0592 10.6702 18.973C10.6989 18.9156 10.7372 18.4751 10.7468 18.3698C10.7659 18.2166 10.8425 17.9006 10.833 17.7762C10.8713 17.7187 10.9 17.5177 10.8904 17.4507L10.9 17.4219C10.9 17.4219 10.9862 17.106 10.967 16.9815C11.0053 16.9336 11.1011 16.3688 11.0915 16.2826L11.1298 16.139C11.1394 16.0719 11.1585 16.0337 11.1394 15.9762L11.1585 15.9188C11.1585 15.9092 11.1681 15.8709 11.1681 15.8614C11.1777 15.8231 11.1777 15.7848 11.1872 15.7464C11.1968 15.6698 11.2255 15.5837 11.2159 15.5071C11.2638 15.4401 11.3116 15.1241 11.3021 15.0284C11.3404 14.971 11.417 14.4347 11.4361 14.3198C11.4936 14.272 12.6426 14.3007 12.7096 14.3007H14.0117L13.916 14.8656L13.8777 15.0859C13.8586 15.1912 13.8203 15.2965 13.8203 15.4114H13.7819L13.7821 15.411Z" fill="#1C1C1C"/>
</svg>