<svg width="52" height="23" viewBox="0 0 52 23" xmlns="http://www.w3.org/2000/svg">
<g clip-path="url(#clip0_16656_829)">
<path fill-rule="evenodd" clip-rule="evenodd" d="M0.919902 18.9244C0.929414 18.839 0.948355 18.7536 0.967379 18.6776L1.02429 18.3644C1.0338 18.3169 1.0338 18.26 1.05278 18.2031C1.06225 18.1556 1.07172 18.1176 1.08123 18.0797C1.09075 17.9943 1.10969 17.9089 1.1192 17.814C1.12871 17.7285 1.15716 17.6431 1.16668 17.5767C1.16668 17.5198 1.25212 17.0357 1.27106 16.9978C1.27106 16.9218 1.385 16.2101 1.40394 16.172C1.41345 16.0392 1.46084 15.8873 1.47036 15.7545C1.47987 15.6026 1.53682 15.4033 1.5558 15.2515C1.56531 15.1186 1.60328 14.9477 1.62226 14.8149C1.63177 14.7389 1.6412 14.682 1.66022 14.5966C1.66974 14.5396 1.68872 14.4826 1.68872 14.4067C1.71717 14.3118 1.72668 14.1315 1.75514 14.0555C1.76465 13.9132 1.80262 13.7708 1.8216 13.6285C1.83107 13.5715 1.84054 13.5335 1.85005 13.4671C1.85956 13.4197 1.85005 13.3817 1.87855 13.3627C1.87855 13.2393 1.92598 13.1159 1.92598 13.0115C1.95448 12.8502 1.99244 12.6794 2.01142 12.518C2.03041 12.4041 2.04939 12.2997 2.06837 12.1858C2.07784 12.1479 2.08731 12.0625 2.09682 12.0245C2.10634 11.9676 2.11581 11.9486 2.11581 11.8917C2.12528 11.8062 2.14426 11.7208 2.16324 11.6354C2.17276 11.5689 2.20121 11.4645 2.20121 11.4076C2.22019 11.3127 2.23922 11.2083 2.24869 11.1228C2.2582 10.933 2.33413 10.7432 2.33413 10.5439C2.35307 10.4965 2.38161 10.3351 2.38161 10.2876C2.40055 10.1927 2.41957 10.0883 2.42908 10.0029L2.51453 9.48091C2.524 9.44294 2.524 9.43343 2.524 9.39546C2.524 9.37648 2.524 9.37648 2.53351 9.3575L2.54302 9.33851C2.54302 9.19617 2.59046 9.02532 2.60944 8.89244C2.60944 8.83554 2.65692 8.56027 2.6759 8.53177C2.6759 8.40841 2.71387 8.36097 2.71387 8.24703C2.72338 8.19956 2.76134 8.02876 2.76134 7.97181C2.76134 7.90539 2.78028 7.87694 2.7898 7.81048L2.86573 7.41184C2.86573 7.28848 2.88471 7.23148 2.90373 7.11759C2.9132 7.07962 2.9417 6.89927 2.95117 6.85188C2.96068 6.76643 2.97966 6.70948 2.98913 6.61461C2.99865 6.54815 3.07458 6.01664 3.10307 5.98819C3.10307 5.90274 3.11254 5.8838 3.13153 5.80787C3.14104 5.74141 3.179 5.40924 3.2075 5.38074C3.2075 5.27636 3.22644 5.20043 3.24546 5.096C3.2644 5.00109 3.2644 4.93467 3.2929 4.85874L3.39732 4.26081C3.39732 4.18484 3.48277 3.67235 3.50171 3.6439C3.50171 3.55845 3.57764 3.10291 3.60609 3.04596C3.60609 2.9795 3.65357 2.68529 3.67255 2.64729C3.67255 2.56189 3.701 2.41007 3.72003 2.32462C3.72003 2.26768 3.84339 1.56536 3.85286 1.52735C3.85286 1.39452 3.90034 1.23314 3.91932 1.10027C3.91932 1.02434 3.9288 1.04332 3.93827 0.986328H24.5812L24.4863 1.61271C24.4673 1.70763 24.4958 1.65068 24.4483 1.68864L24.4578 1.73612C24.4293 1.87847 24.3534 2.5049 24.3059 2.57131C24.3154 2.65676 24.23 3.22619 24.192 3.28314C24.2015 3.37801 24.1161 3.85262 24.0876 3.96647L24.0307 4.28918L23.8504 5.27627C23.8599 5.34269 23.7744 5.86469 23.746 5.91217C23.7555 6.05452 23.6985 6.27284 23.67 6.4247L23.5846 6.92768C23.5751 6.94666 23.5751 6.94666 23.5751 6.96569L23.5656 6.99414C23.5751 7.07007 23.5561 7.25043 23.5087 7.30733C23.5181 7.41172 23.4707 7.61105 23.4517 7.71544C23.4328 7.82933 23.3569 8.37979 23.3189 8.42722C23.3284 8.51266 23.2619 8.96821 23.2145 9.0252C23.224 9.07263 23.1765 9.46175 23.129 9.5187C23.148 9.64207 23.0342 10.1072 23.0151 10.278C22.9867 10.3824 22.9772 10.4963 22.9582 10.6007L22.8918 10.9328C22.9013 10.9803 22.8443 11.4644 22.7874 11.5402C22.8063 11.6162 22.7779 11.7965 22.7304 11.8535C22.7399 11.9389 22.7115 12.0338 22.702 12.1287L22.5976 12.6507C22.6071 12.7171 22.5786 12.9354 22.5406 12.9829C22.5502 13.0778 22.5027 13.41 22.4552 13.4764C22.4647 13.5713 22.4363 13.6757 22.4172 13.7706C22.4077 13.8371 22.3888 14.0079 22.3508 14.0554C22.3603 14.1123 22.3508 14.1598 22.3413 14.2168C22.3413 14.2452 22.3318 14.2737 22.3224 14.3022C22.3129 14.3591 22.3224 14.3306 22.2939 14.3686C22.3034 14.4351 22.2939 14.473 22.2844 14.5299C22.2844 14.5489 22.2749 14.5869 22.2749 14.6059C22.2654 14.6628 22.2749 14.6344 22.2464 14.6723L22.1895 15.1184C22.1515 15.2323 22.2275 15.0235 22.18 15.1469C22.18 15.1469 22.1705 15.1658 22.1705 15.1564C22.1705 15.1564 22.1705 15.1659 22.161 15.1659C22.1705 15.2228 22.161 15.2703 22.1515 15.3272L22.1135 15.4696C22.1325 15.5455 22.066 15.9441 22.0281 16.0011C22.0376 16.096 21.9712 16.5421 21.9237 16.5991C21.9332 16.6939 21.8857 17.0451 21.8382 17.102C21.8478 17.178 21.8287 17.3488 21.7908 17.4058C21.8003 17.4912 21.7718 17.5956 21.7528 17.6905L21.6863 18.1081C21.6769 18.1746 21.6389 18.4403 21.6104 18.4972C21.6294 18.5921 21.5915 18.7156 21.5725 18.8199C21.5535 18.9148 21.5535 19.0477 21.506 19.1142C21.5155 19.1996 21.487 19.2945 21.4775 19.3799C21.468 19.4559 21.4586 19.5698 21.4206 19.6172C21.4396 19.7311 21.3732 19.9684 21.3542 20.0917C21.3352 20.2151 21.3352 20.4429 21.2687 20.5283C21.2782 20.6232 21.2308 20.9744 21.1833 21.0313C21.1928 21.1167 21.1169 21.5913 21.0789 21.6387C21.0884 21.7526 21.022 22.0658 21.003 22.1987C20.984 22.3411 21.0124 22.36 20.8701 22.3695H3.02693V22.36C2.45745 22.36 1.88802 22.36 1.32805 22.3695H0.3125C0.32197 22.2935 0.340953 22.2081 0.359978 22.1227L0.435908 21.6292C0.445378 21.5912 0.464361 21.4204 0.483386 21.4014C0.483386 21.3445 0.549804 20.9079 0.568829 20.8794C0.568829 20.813 0.587769 20.7181 0.597281 20.6611C0.80609 19.4463 0.644759 20.4998 0.891533 18.8958L0.919986 18.9242L0.919902 18.9244ZM5.24777 20.5758H8.45575C9.45232 15.6689 10.7811 7.84836 11.6637 2.71375L8.48429 2.7137C8.52225 3.84311 5.39972 19.7311 5.25733 20.5853L5.24781 20.5758H5.24777ZM13.2771 15.3842C13.2487 15.4507 13.2392 15.5741 13.2297 15.6594C13.2202 15.7449 13.1822 15.8493 13.1822 15.9442C13.1822 16.0011 13.1537 16.0771 13.1442 16.134C13.1347 16.2005 13.1158 16.2859 13.1063 16.3618C13.0873 16.3903 13.0398 16.6845 13.0398 16.751C13.0114 16.7889 12.9354 17.273 12.9354 17.3584L12.8311 17.8898C12.8121 18.0322 12.7646 18.1461 12.7836 18.3264C12.812 18.6112 13.0588 18.7915 13.3625 18.744C13.5903 18.706 13.5713 18.6871 13.7232 18.6017C13.7801 18.5068 14.0079 18.3169 13.9889 18.1651C14.0269 18.1082 14.0933 17.6715 14.1028 17.6051C14.1313 17.4818 14.2072 17.1021 14.1977 17.0072L14.2072 16.9787C14.2072 16.9692 14.2832 16.751 14.2641 16.618L14.2926 16.5231C14.3021 16.4947 14.3021 16.4567 14.3116 16.4187C14.321 16.3523 14.3495 16.2764 14.3305 16.2099C14.34 16.191 14.34 16.2099 14.3495 16.172L14.3684 16.0865C14.3779 16.0201 14.3779 16.0201 14.3779 15.9632C14.4254 15.9062 14.4444 15.65 14.4634 15.5551C14.4823 15.4317 14.5488 15.1659 14.5393 15.0615L14.6057 14.7768C14.6247 14.6724 14.6532 14.568 14.6437 14.4731C14.6722 14.4351 14.6722 14.3782 14.6626 14.3212C14.7481 14.1883 14.6152 13.6759 14.5678 13.5335C14.5203 13.4006 14.2735 13.002 14.1976 12.964C14.1787 12.9165 13.9699 12.6318 13.9224 12.6033C13.9034 12.5464 13.9224 12.5938 13.8844 12.5464L13.6187 12.2142L13.5523 12.1099C13.4668 12.0054 13.0682 11.4834 13.0302 11.4739C13.0113 11.4075 12.8499 11.2176 12.793 11.1512C12.7455 11.0943 12.5842 10.8665 12.5462 10.8475C12.5273 10.8096 12.2994 10.4869 12.2615 10.4679C12.214 10.354 12.1286 10.2496 12.0622 10.1357C12.0337 10.0882 11.9957 10.0218 11.9672 9.95534C11.9483 9.90791 11.9198 9.813 11.8913 9.77503C11.8533 9.55671 11.8344 9.45233 11.8438 9.21506L11.9293 8.60766L12.0717 7.81039C12.1001 7.67756 12.1761 7.33587 12.1571 7.22197C12.2045 7.15551 12.2425 6.85183 12.2425 6.75688C12.2805 6.7094 12.3564 6.22536 12.3469 6.15895C12.4134 6.05452 12.4418 5.60845 12.4893 5.44712C12.5082 5.31428 12.5842 5.02003 12.5747 4.90618C12.5937 4.88724 12.5842 4.90618 12.5937 4.86821L12.6316 4.70688C12.6506 4.64042 12.6791 4.56449 12.6696 4.49807C12.6981 4.46011 12.6886 4.47909 12.7076 4.4221C12.7171 4.39365 12.7265 4.37466 12.7361 4.34617C12.755 4.28926 12.774 4.2513 12.774 4.18484C12.8215 4.13736 12.8785 3.97603 12.9069 3.9001L13.0588 3.61536C13.1062 3.58686 13.1537 3.51093 13.1916 3.4635C13.2391 3.39704 13.2771 3.36858 13.334 3.32111C13.3815 3.28314 13.6472 3.10283 13.6567 3.08384C13.7421 3.05539 13.837 2.98897 13.9319 2.95101C14.0268 2.913 14.1123 2.87504 14.2167 2.84658C14.435 2.78017 14.6248 2.75171 14.862 2.73269C15.5359 2.71375 16.2288 2.73269 16.9121 2.73269C17.567 2.73269 18.1839 2.78959 18.5351 3.16925C18.611 3.24518 18.7723 3.4635 18.8198 3.59638C18.8578 3.71027 18.9052 3.79567 18.9337 3.91908C18.9622 4.05192 18.9717 4.17532 18.9717 4.33666C18.9717 4.3936 18.9622 4.49803 18.9527 4.57392C18.9432 4.64985 18.9243 4.74476 18.9243 4.8302C18.9148 4.91565 18.8863 5.02003 18.8768 5.10543C18.8673 5.20034 18.8483 5.33322 18.8198 5.40915C18.8198 5.47557 18.7914 5.58 18.7819 5.65593C18.7629 5.7508 18.7439 5.84575 18.7344 5.93115C18.7249 5.95961 18.687 6.17793 18.687 6.21589C18.6775 6.28235 18.6585 6.35824 18.6395 6.44364C18.6205 6.53856 18.6015 6.624 18.6015 6.71887C18.573 6.80431 18.5636 6.91821 18.5446 7.02259C18.5256 7.14596 18.5066 7.24091 18.4877 7.35477C18.4877 7.42123 18.4497 7.58252 18.4402 7.63951C18.4307 7.69645 18.4307 7.71544 18.4212 7.7819C18.4117 7.82933 18.3928 7.88628 18.3928 7.9527C18.3833 8.01916 18.3643 8.10456 18.3453 8.18049C18.3263 8.26593 18.3073 8.3608 18.3073 8.43673C18.2978 8.49368 18.2789 8.56961 18.2599 8.64554L15.7258 8.65506C15.7258 8.47474 15.8397 8.15204 15.8301 7.98115C15.8776 7.92425 15.9251 7.56353 15.9156 7.47818C15.9346 7.44968 15.9251 7.47818 15.9346 7.4307L16.0105 6.92768C16.0674 6.86122 16.1149 6.32028 16.1528 6.19687C16.1718 6.06399 16.2288 5.86469 16.2193 5.74129C16.2573 5.68438 16.2573 5.54199 16.2857 5.47557L16.2952 5.38066L16.3237 5.25729C16.3997 4.88715 16.2573 4.56445 15.8682 4.56445C15.555 4.56445 15.2322 4.75427 15.1373 5.02003C15.1184 5.06751 15.1184 5.09596 15.0994 5.13393C15.0804 5.22884 15.0519 5.36172 15.0519 5.45663C15.033 5.54207 15.0234 5.59898 15.0044 5.69389C14.9855 5.78881 14.9665 5.86474 14.9665 5.96912L14.9285 6.11147L14.9 6.28231C14.8811 6.40568 14.8526 6.51957 14.8431 6.63351C14.8146 6.65245 14.8241 6.70944 14.8146 6.75688C14.8051 6.8233 14.7957 6.84232 14.7861 6.89923C14.7766 6.98467 14.7387 7.10804 14.7387 7.19348C14.7197 7.26941 14.7102 7.33583 14.6912 7.43074C14.6722 7.52561 14.6532 7.60158 14.6532 7.70597C14.6248 7.74393 14.5868 8.01916 14.5773 8.11407C14.5678 8.18049 14.5488 8.44625 14.5678 8.51271C14.5868 8.56961 14.5488 8.53165 14.5963 8.56018C14.5488 8.69302 14.7196 9.02524 14.7956 9.15812C14.843 9.23405 14.7861 9.18657 14.862 9.22458C14.8525 9.27201 14.8525 9.23405 14.862 9.27201C14.862 9.29099 14.881 9.30998 14.8905 9.32896L15.3461 9.94587C15.384 9.97433 15.3176 9.94587 15.384 9.97433C15.384 10.0312 15.6118 10.297 15.6593 10.335L16.0009 10.7336C16.0009 10.7431 15.982 10.7431 16.0294 10.8096L16.4565 11.3411L16.6938 11.6353C16.7602 11.7208 16.7318 11.7018 16.7887 11.7302C16.7982 11.7871 16.9311 11.9485 16.969 12.015C17.0449 12.1289 17.1114 12.2902 17.1683 12.3187C17.1494 12.3756 17.1588 12.3376 17.1873 12.4041C17.2062 12.4326 17.2062 12.4421 17.2252 12.4895L17.3486 12.8407C17.3866 12.9831 17.3581 12.9926 17.4055 13.0306C17.3581 13.1445 17.3866 13.3153 17.3866 13.4386C17.3771 13.5146 17.3676 13.5335 17.3676 13.6285C17.3487 13.657 17.2822 14.122 17.2822 14.1979C17.2537 14.2264 17.2822 14.1885 17.2632 14.2359C17.2632 14.2454 17.2537 14.3024 17.2537 14.3024C17.2442 14.3688 17.2348 14.4067 17.2348 14.4637C17.2158 14.5017 17.1493 14.8908 17.1493 14.9477C17.1304 15.0237 17.1114 15.1376 17.1019 15.2325C17.0924 15.3369 17.0544 15.4318 17.0544 15.5552C17.0354 15.5742 17.0354 15.6216 17.0259 15.6596C17.0164 15.7165 17.0164 15.745 17.007 15.7924C16.988 15.8874 16.9785 15.9918 16.9595 16.0772C16.9595 16.1721 16.912 16.305 16.912 16.4189C16.8931 16.4474 16.8645 16.6372 16.8645 16.6941C16.8456 16.827 16.8076 16.9598 16.7981 17.1022C16.7791 17.1497 16.7317 17.4344 16.7317 17.5103C16.7032 17.5292 16.7032 17.6052 16.7032 17.6432C16.6937 17.7096 16.6842 17.7381 16.6747 17.8045C16.6558 17.9184 16.6272 18.0418 16.6178 18.1557C16.5988 18.2031 16.5799 18.3075 16.5703 18.3645C16.5514 18.4309 16.5229 18.5353 16.5134 18.6113L16.3521 19.0668C16.2666 19.2756 16.1622 19.399 16.1243 19.4939C16.1054 19.5034 15.9914 19.6648 15.963 19.7027C15.925 19.7502 15.9155 19.7597 15.8775 19.8071L15.7732 19.9211C15.6972 20.0254 15.3935 20.2438 15.2512 20.3007C15.1752 20.3292 15.1088 20.3481 15.0328 20.3956C14.9474 20.4051 14.6152 20.5189 14.3115 20.5285L13.4668 20.5474C13.3055 20.5474 13.2011 20.5663 13.0587 20.5663L11.9578 20.5665C11.8534 20.5665 11.8344 20.5475 11.7395 20.5475C11.692 20.5475 11.5591 20.519 11.5022 20.5095C11.4642 20.5 11.4358 20.5 11.3883 20.4906C11.3408 20.4811 11.3219 20.4621 11.2649 20.4621C10.9328 20.3861 10.8378 20.2723 10.667 20.1489C10.6385 20.1299 10.6575 20.1394 10.6385 20.1299C10.61 20.0825 10.6385 20.1204 10.6005 20.073C10.591 20.0541 10.5816 20.0541 10.5721 20.035L10.2494 19.4276C10.2399 19.3422 10.2114 19.2663 10.2019 19.1809C10.1924 19.086 10.2114 19.0005 10.1924 18.9151C10.2209 18.8582 10.2588 18.4216 10.2684 18.3172C10.2873 18.1653 10.3632 17.8521 10.3538 17.7288C10.3918 17.6718 10.4202 17.4725 10.4107 17.406L10.4202 17.3776C10.4202 17.3776 10.5057 17.0644 10.4866 16.941C10.5246 16.8935 10.6195 16.3336 10.61 16.2481L10.648 16.1058C10.6575 16.0393 10.6765 16.0014 10.6575 15.9445L10.6764 15.8875C10.6764 15.878 10.6859 15.84 10.6859 15.8306C10.6954 15.7926 10.6954 15.7547 10.7049 15.7167C10.7144 15.6407 10.7429 15.5553 10.7334 15.4794C10.7808 15.413 10.8282 15.0998 10.8188 15.0049C10.8568 14.948 10.9327 14.4164 10.9517 14.3025C11.0086 14.2551 12.1476 14.2836 12.214 14.2836H13.5048L13.4099 14.8436L13.3719 15.0619C13.353 15.1663 13.315 15.2706 13.315 15.3845H13.277L13.2771 15.3842Z"/>
<path fill-rule="evenodd" clip-rule="evenodd" d="M32.1646 9.2341L32.2405 10.43C32.25 10.4965 32.25 10.5439 32.25 10.6388C32.25 10.7337 32.2689 10.7432 32.2689 10.8381C32.2689 11.1039 32.3164 11.3791 32.3164 11.6543L32.3449 12.0435C32.3638 12.1858 32.3638 12.3187 32.3638 12.4611C32.3638 12.575 32.3923 12.7363 32.4018 12.8502L32.4303 13.4387C32.4303 13.5336 32.4492 13.5526 32.4492 13.638L32.4967 14.4542C32.4967 14.5491 32.5156 14.5586 32.5156 14.6535C32.5156 14.8908 32.5441 15.0047 32.5441 15.2609L32.5821 15.669L30.8927 15.669L31.2059 14.0555C31.2534 13.7803 31.3198 13.524 31.3672 13.2487C31.3862 13.1159 31.4147 12.9925 31.4432 12.8501C31.4717 12.7077 31.5001 12.5844 31.5191 12.442L31.8323 10.8286C31.8892 10.5628 31.9273 10.2876 31.9937 10.0218L32.1076 9.42384C32.1171 9.38587 32.1171 9.3764 32.1265 9.31946L32.155 9.21507L32.1645 9.23401L32.1646 9.2341ZM41.3139 12.0624H39.6719C39.6054 12.0624 39.6339 12.0055 39.6339 11.9295L39.8238 8.9209C39.8238 8.82599 39.8427 8.81652 39.8427 8.73108L39.8997 7.72504C39.9091 7.65858 39.9091 7.60168 39.9091 7.5257C39.9091 7.3549 39.9566 6.92777 39.9566 6.72847C39.9566 6.6336 39.9755 6.61458 39.9755 6.52918L39.9945 6.12107C40.004 6.00718 40.023 5.83633 40.023 5.71297H41.7789C42.2629 5.71297 42.1205 6.07364 42.1205 6.45329L41.9022 9.85105C41.9022 9.92698 41.9117 9.9934 41.9022 10.0694C41.8547 10.4965 41.8547 11.047 41.8073 11.4645C41.7789 11.7208 41.8832 12.053 41.3138 12.053V12.0625L41.3139 12.0624ZM29.8297 20.908C29.8677 20.7277 29.9057 20.5284 29.9436 20.3481C29.9816 20.1487 30.0196 19.9684 30.0576 19.7691C30.0955 19.5793 30.1335 19.3895 30.1715 19.1902C30.2094 19.0003 30.2474 18.801 30.2948 18.6207L32.8005 18.6207C32.8005 18.782 32.8479 19.0383 32.8479 19.1996C32.8574 19.4844 32.9048 19.7785 32.9143 20.0633C32.9239 20.2532 32.9618 20.4524 32.9618 20.6517C32.9618 20.7372 32.9523 20.908 33.0282 20.908H39.0171C39.093 20.908 39.0645 20.7752 39.0835 20.5853C39.1025 20.3481 39.1025 20.0918 39.131 19.8545C39.1405 19.7976 39.131 19.7312 39.131 19.6742L39.1974 18.7536C39.2164 18.5828 39.2069 18.3644 39.2354 18.1936C39.2639 18.0133 39.2543 17.8235 39.2734 17.6336C39.2829 17.5767 39.2734 17.5197 39.2829 17.4533L39.3777 15.9821C39.3777 15.9062 39.3777 15.8588 39.3873 15.7828C39.4157 15.574 39.4347 15.2419 39.4347 15.0331H39.8713C39.9377 15.0331 39.9282 15.1185 39.9472 15.1754L40.4313 17.2065C40.4882 17.4438 40.5546 17.719 40.6116 17.9563C40.8014 18.6966 40.9817 19.4274 41.1431 20.1772L41.276 20.7371C41.2949 20.8036 41.2855 20.8985 41.3519 20.8985H45.1198C45.1198 20.813 45.0534 20.6232 45.0249 20.5283L44.6358 19.0762C44.4839 18.4593 44.2941 17.8519 44.1423 17.235C43.9904 16.6276 43.8006 16.0106 43.6582 15.4032C43.6297 15.2799 43.5823 15.1565 43.5538 15.0331C44.0189 15.0331 44.37 14.9097 44.6263 14.7009C45.0534 14.3592 45.3191 13.8372 45.3097 13.2583L45.5185 9.93645C45.5374 9.83207 45.5279 9.69919 45.5469 9.60428L45.5849 8.93037C45.5849 8.85444 45.5944 8.8355 45.6038 8.77851C45.6133 8.7121 45.6038 8.66462 45.6133 8.5982C45.6418 8.43687 45.6323 8.26603 45.6418 8.10465L45.6893 7.4403C45.6988 7.27893 45.6988 7.0891 45.7178 6.92777L45.7747 5.92173H46.9041C46.9041 6.23493 46.8566 6.53865 46.8566 6.85184L46.7901 7.78195C46.7712 7.94328 46.7807 8.09514 46.7712 8.25647L46.7047 9.18658C46.7047 9.35742 46.6953 9.51875 46.6763 9.6611L46.4485 13.4006C46.4296 13.5334 46.4296 13.7327 46.42 13.8656C46.42 13.9511 46.4011 13.9795 46.4011 14.084L46.0974 19.0193C46.0879 19.1617 46.0594 19.3325 46.0594 19.4749L46.0025 20.4145C45.9835 20.5568 45.974 20.7277 45.974 20.889H49.6945C49.7705 20.889 49.742 20.7846 49.742 20.6992C49.742 20.5473 49.78 20.3955 49.78 20.2247L49.8559 19.0478C49.8749 18.9244 49.8844 18.7251 49.8844 18.5827C49.8844 18.4972 49.9033 18.4593 49.9033 18.3454C49.9033 18.2315 49.9223 18.2031 49.9223 18.1082C49.9223 17.9848 49.9318 17.7665 49.9508 17.6431C49.9792 17.4817 49.9603 17.3204 49.9792 17.159C49.9887 17.0167 50.0077 16.8553 50.0077 16.7035L50.0457 16.229C50.0457 16.1245 50.0552 16.0866 50.0646 16.0106L50.1026 15.2798C50.1216 15.0046 50.1595 14.625 50.169 14.3497L50.2165 13.4006C50.226 13.2582 50.2545 13.0969 50.2545 12.9451C50.2545 12.7837 50.2829 12.6223 50.2925 12.4705C50.302 12.1383 50.3304 11.8536 50.3399 11.5214L50.6721 6.36776C50.6816 6.28232 50.6816 6.2159 50.6816 6.12099C50.6816 6.03555 50.7006 5.99762 50.7006 5.88373H53.1682C53.1018 5.6085 53.0543 5.32376 52.9879 5.02955L52.7316 3.74824C52.7031 3.59638 52.6747 3.46351 52.6462 3.31169C52.6177 3.17881 52.5892 3.02695 52.5607 2.89407C52.5322 2.74221 52.4848 2.59982 52.4848 2.448H45.6512C45.6418 2.51446 45.6228 2.56194 45.6038 2.61884C45.5468 2.78017 45.4709 2.96053 45.4329 3.12186H45.395C45.376 3.0554 45.3095 3.00792 45.2621 2.96049C45.1577 2.8561 45.0344 2.78969 44.9109 2.72323C44.5978 2.5334 44.1042 2.448 43.6866 2.448H36.5303C36.5303 2.70428 36.4924 2.90358 36.4924 3.14084C36.4924 3.21682 36.4829 3.24527 36.4829 3.2927C36.4734 3.35916 36.4829 3.41607 36.4734 3.47306C36.4639 3.56793 36.4544 3.71983 36.4449 3.81475C36.4354 3.87165 36.4449 3.92864 36.4449 3.98555L36.388 4.85875C36.3595 5.06756 36.35 5.63704 36.3311 5.90275L36.3026 6.41528C36.3026 6.5956 36.2646 6.74746 36.2646 6.91826L36.1602 8.47479C36.1507 8.75953 36.1033 9.05374 36.1127 9.33848C36.1127 9.62322 36.0748 9.91743 36.0653 10.2022L35.9324 12.2522C35.9324 12.6603 35.866 13.0779 35.866 13.486H35.847C35.847 13.1443 35.7236 12.4989 35.6952 12.1193L35.6667 11.8915C35.6572 11.7967 35.6572 11.7492 35.6477 11.6638L35.325 8.93989C35.2396 8.34191 35.2016 7.71553 35.1067 7.12707L35.0498 6.67153L34.5658 2.57141C34.5468 2.40056 34.5278 2.45751 34.1671 2.45751L30.5985 2.45747L29.9531 5.12442C29.4501 7.12703 28.985 9.1391 28.482 11.1512C28.4251 11.3695 28.3681 11.5973 28.3206 11.8156L27.2671 16.153L27.1817 16.4946L26.2041 20.5093C26.1946 20.5378 26.1187 20.8415 26.1187 20.8415C26.1282 20.889 26.1187 20.87 26.1756 20.87H29.8296V20.9079L29.8297 20.908Z"/>
</g>
<defs>
<clipPath id="clip0_16656_829">
<rect width="51.6121" height="21.3832" transform="translate(0.3125 0.986328)"/>
</clipPath>
</defs>
</svg>
